<?xml version="1.0" encoding="utf-8" standalone="no"?>
<!DOCTYPE svg PUBLIC "-//W3C//DTD SVG 1.1//EN"
  "http://www.w3.org/Graphics/SVG/1.1/DTD/svg11.dtd">
<svg xmlns:xlink="http://www.w3.org/1999/xlink" width="720pt" height="576pt" viewBox="0 0 720 576" xmlns="http://www.w3.org/2000/svg" version="1.1">
 <metadata>
  <rdf:RDF xmlns:dc="http://purl.org/dc/elements/1.1/" xmlns:cc="http://creativecommons.org/ns#" xmlns:rdf="http://www.w3.org/1999/02/22-rdf-syntax-ns#">
   <cc:Work>
    <dc:type rdf:resource="http://purl.org/dc/dcmitype/StillImage"/>
    <dc:date>2025-05-14T10:41:24.996954</dc:date>
    <dc:format>image/svg+xml</dc:format>
    <dc:creator>
     <cc:Agent>
      <dc:title>Matplotlib v3.10.1, https://matplotlib.org/</dc:title>
     </cc:Agent>
    </dc:creator>
   </cc:Work>
  </rdf:RDF>
 </metadata>
 <defs>
  <style type="text/css">*{stroke-linejoin: round; stroke-linecap: butt}</style>
 </defs>
 <g id="figure_1">
  <g id="patch_1">
   <path d="M 0 576 
L 720 576 
L 720 0 
L 0 0 
z
" style="fill: #ffffff"/>
  </g>
  <g id="axes_1">
   <g id="patch_2">
    <path d="M 486.719078 355.92913 
C 477.675275 356.91127 468.541351 356.697333 459.553448 355.29285 
C 450.565546 353.888367 441.801793 351.305547 433.488761 347.611163 
C 436.314808 357.141415 438.117262 366.945743 438.865574 376.857972 
C 439.613886 386.770201 439.303803 396.734013 437.940582 406.580529 
C 447.567747 399.760806 456.532435 392.051015 464.716232 383.552992 
C 472.90003 375.054969 480.266746 365.806294 486.719078 355.92913 
M 486.719078 150.04779 
C 459.966872 109.095783 418.276918 80.143139 370.560374 69.378438 
C 322.84383 58.613737 272.76129 66.862797 231.017813 92.362395 
C 189.274336 117.861994 159.07229 158.655918 146.867313 206.024535 
C 134.662335 253.393152 141.390736 303.70256 165.61433 346.199205 
C 171.915729 325.742743 182.827911 307.002387 197.508428 291.42494 
C 212.188946 275.847492 230.250029 263.844414 250.297319 256.342371 
C 270.344609 248.840328 291.848578 246.03748 313.149066 248.150212 
C 334.449555 250.262944 354.983936 257.235452 373.166903 268.529441 
C 370.787106 252.853018 372.039609 236.837425 376.827523 221.721555 
C 381.615437 206.605685 389.812039 192.789618 400.783276 181.342103 
C 411.754513 169.894587 425.210004 161.118611 440.108892 155.693044 
C 455.00778 150.267476 470.955729 148.33592 486.719078 150.04779 
" clip-path="url(#pfe21f71911)" style="fill: #8ecae6; opacity: 0.7; stroke: #222222; stroke-width: 1.5; stroke-linejoin: miter"/>
   </g>
   <g id="patch_3">
    <path d="M 486.719078 150.04779 
C 506.712479 180.653488 517.362893 216.431041 517.362893 252.98846 
C 517.362893 289.545879 506.712479 325.323432 486.719078 355.92913 
C 512.089061 353.173997 535.566217 341.135071 552.609077 322.141184 
C 569.651937 303.147298 579.085822 278.507606 579.085822 252.98846 
C 579.085822 227.469314 569.651937 202.829622 552.609077 183.835736 
C 535.566217 164.841849 512.089061 152.802923 486.719078 150.04779 
" clip-path="url(#pfe21f71911)" style="fill: #ffd166; opacity: 0.7; stroke: #222222; stroke-width: 1.5; stroke-linejoin: miter"/>
   </g>
   <g id="patch_4">
    <path d="M 486.719078 150.04779 
C 470.955729 148.33592 455.00778 150.267476 440.108892 155.693044 
C 425.210004 161.118611 411.754513 169.894587 400.783276 181.342103 
C 389.812039 192.789618 381.615437 206.605685 376.827523 221.721555 
C 372.039609 236.837425 370.787106 252.853018 373.166903 268.529441 
C 387.602759 277.495985 400.285103 289.017844 410.591615 302.529642 
C 420.898127 316.04144 428.657425 331.318494 433.488761 347.611163 
C 441.801793 351.305547 450.565546 353.888367 459.553448 355.29285 
C 468.541351 356.697333 477.675275 356.91127 486.719078 355.92913 
C 506.712479 325.323432 517.362893 289.545879 517.362893 252.98846 
C 517.362893 216.431041 506.712479 180.653488 486.719078 150.04779 
" clip-path="url(#pfe21f71911)" style="fill: #ffffe8; opacity: 0.7; stroke: #222222; stroke-width: 1.5; stroke-linejoin: miter"/>
   </g>
   <g id="patch_5">
    <path d="M 437.940582 406.580529 
C 416.500672 421.768201 392.116332 432.299757 366.360984 437.495637 
C 340.605635 442.691516 314.045418 442.437508 288.394152 436.750001 
C 262.742887 431.062495 238.564426 420.06651 217.418905 404.471571 
C 196.273385 388.876633 178.625613 369.025541 165.61433 346.199205 
C 159.925478 364.667132 158.123594 384.114879 160.322529 403.31363 
C 162.521465 422.512381 168.673911 441.049076 178.391122 457.752464 
C 188.108333 474.455852 201.181243 488.966561 216.783835 500.367723 
C 232.386426 511.768886 250.183009 519.815207 269.049097 523.998276 
C 287.915186 528.181345 307.444877 528.411162 326.404177 524.673208 
C 345.363477 520.935253 363.344477 513.309948 379.21104 502.279102 
C 395.077602 491.248256 408.488357 477.049197 418.595941 460.579099 
C 428.703524 444.109001 435.290471 425.722218 437.940582 406.580529 
" clip-path="url(#pfe21f71911)" style="fill: #b7e4c7; opacity: 0.7; stroke: #222222; stroke-width: 1.5; stroke-linejoin: miter"/>
   </g>
   <g id="patch_6">
    <path d="M 433.488761 347.611163 
C 417.605491 340.5525 403.752256 329.606935 393.210912 315.787273 
C 382.669568 301.967612 375.775596 285.713669 373.166903 268.529441 
C 354.983936 257.235452 334.449555 250.262944 313.149066 248.150212 
C 291.848578 246.03748 270.344609 248.840328 250.297319 256.342371 
C 230.250029 263.844414 212.188946 275.847492 197.508428 291.42494 
C 182.827911 307.002387 171.915729 325.742743 165.61433 346.199205 
C 178.625613 369.025541 196.273385 388.876633 217.418905 404.471571 
C 238.564426 420.06651 262.742887 431.062495 288.394152 436.750001 
C 314.045418 442.437508 340.605635 442.691516 366.360984 437.495637 
C 392.116332 432.299757 416.500672 421.768201 437.940582 406.580529 
C 439.303803 396.734013 439.613886 386.770201 438.865574 376.857972 
C 438.117262 366.945743 436.314808 357.141415 433.488761 347.611163 
" clip-path="url(#pfe21f71911)" style="fill: #e3ffff; opacity: 0.7; stroke: #222222; stroke-width: 1.5; stroke-linejoin: miter"/>
   </g>
   <g id="patch_7">
    <path d="M 373.166903 268.529441 
C 375.775596 285.713669 382.669568 301.967612 393.210912 315.787273 
C 403.752256 329.606935 417.605491 340.5525 433.488761 347.611163 
C 428.657425 331.318494 420.898127 316.04144 410.591615 302.529642 
C 400.285103 289.017844 387.602759 277.495985 373.166903 268.529441 
" clip-path="url(#pfe21f71911)" style="fill: #e8ffd4; opacity: 0.7; stroke: #222222; stroke-width: 1.5; stroke-linejoin: miter"/>
   </g>
   <g id="text_1">
    <!-- 34 -->
    <g transform="translate(275.979823 163.761074) scale(0.1 -0.1)">
     <defs>
      <path id="DejaVuSans-33" d="M 2597 2516 
Q 3050 2419 3304 2112 
Q 3559 1806 3559 1356 
Q 3559 666 3084 287 
Q 2609 -91 1734 -91 
Q 1441 -91 1130 -33 
Q 819 25 488 141 
L 488 750 
Q 750 597 1062 519 
Q 1375 441 1716 441 
Q 2309 441 2620 675 
Q 2931 909 2931 1356 
Q 2931 1769 2642 2001 
Q 2353 2234 1838 2234 
L 1294 2234 
L 1294 2753 
L 1863 2753 
Q 2328 2753 2575 2939 
Q 2822 3125 2822 3475 
Q 2822 3834 2567 4026 
Q 2313 4219 1838 4219 
Q 1578 4219 1281 4162 
Q 984 4106 628 3988 
L 628 4550 
Q 988 4650 1302 4700 
Q 1616 4750 1894 4750 
Q 2613 4750 3031 4423 
Q 3450 4097 3450 3541 
Q 3450 3153 3228 2886 
Q 3006 2619 2597 2516 
z
" transform="scale(0.015625)"/>
      <path id="DejaVuSans-34" d="M 2419 4116 
L 825 1625 
L 2419 1625 
L 2419 4116 
z
M 2253 4666 
L 3047 4666 
L 3047 1625 
L 3713 1625 
L 3713 1100 
L 3047 1100 
L 3047 0 
L 2419 0 
L 2419 1100 
L 313 1100 
L 313 1709 
L 2253 4666 
z
" transform="scale(0.015625)"/>
     </defs>
     <use xlink:href="#DejaVuSans-33"/>
     <use xlink:href="#DejaVuSans-34" transform="translate(63.623047 0)"/>
    </g>
   </g>
   <g id="text_2">
    <!-- 7 -->
    <g transform="translate(545.043108 255.747835) scale(0.1 -0.1)">
     <defs>
      <path id="DejaVuSans-37" d="M 525 4666 
L 3525 4666 
L 3525 4397 
L 1831 0 
L 1172 0 
L 2766 4134 
L 525 4134 
L 525 4666 
z
" transform="scale(0.015625)"/>
     </defs>
     <use xlink:href="#DejaVuSans-37"/>
    </g>
   </g>
   <g id="text_3">
    <!-- 15 -->
    <g transform="translate(435.218348 246.022849) scale(0.1 -0.1)">
     <defs>
      <path id="DejaVuSans-31" d="M 794 531 
L 1825 531 
L 1825 4091 
L 703 3866 
L 703 4441 
L 1819 4666 
L 2450 4666 
L 2450 531 
L 3481 531 
L 3481 0 
L 794 0 
L 794 531 
z
" transform="scale(0.015625)"/>
      <path id="DejaVuSans-35" d="M 691 4666 
L 3169 4666 
L 3169 4134 
L 1269 4134 
L 1269 2991 
Q 1406 3038 1543 3061 
Q 1681 3084 1819 3084 
Q 2600 3084 3056 2656 
Q 3513 2228 3513 1497 
Q 3513 744 3044 326 
Q 2575 -91 1722 -91 
Q 1428 -91 1123 -41 
Q 819 9 494 109 
L 494 744 
Q 775 591 1075 516 
Q 1375 441 1709 441 
Q 2250 441 2565 725 
Q 2881 1009 2881 1497 
Q 2881 1984 2565 2268 
Q 2250 2553 1709 2553 
Q 1456 2553 1204 2497 
Q 953 2441 691 2322 
L 691 4666 
z
" transform="scale(0.015625)"/>
     </defs>
     <use xlink:href="#DejaVuSans-31"/>
     <use xlink:href="#DejaVuSans-35" transform="translate(63.623047 0)"/>
    </g>
   </g>
   <g id="text_4">
    <!-- 15 -->
    <g transform="translate(272.359125 483.133514) scale(0.1 -0.1)">
     <use xlink:href="#DejaVuSans-31"/>
     <use xlink:href="#DejaVuSans-35" transform="translate(63.623047 0)"/>
    </g>
   </g>
   <g id="text_5">
    <!-- 26 -->
    <g transform="translate(302.229159 342.760957) scale(0.1 -0.1)">
     <defs>
      <path id="DejaVuSans-32" d="M 1228 531 
L 3431 531 
L 3431 0 
L 469 0 
L 469 531 
Q 828 903 1448 1529 
Q 2069 2156 2228 2338 
Q 2531 2678 2651 2914 
Q 2772 3150 2772 3378 
Q 2772 3750 2511 3984 
Q 2250 4219 1831 4219 
Q 1534 4219 1204 4116 
Q 875 4013 500 3803 
L 500 4441 
Q 881 4594 1212 4672 
Q 1544 4750 1819 4750 
Q 2544 4750 2975 4387 
Q 3406 4025 3406 3419 
Q 3406 3131 3298 2873 
Q 3191 2616 2906 2266 
Q 2828 2175 2409 1742 
Q 1991 1309 1228 531 
z
" transform="scale(0.015625)"/>
      <path id="DejaVuSans-36" d="M 2113 2584 
Q 1688 2584 1439 2293 
Q 1191 2003 1191 1497 
Q 1191 994 1439 701 
Q 1688 409 2113 409 
Q 2538 409 2786 701 
Q 3034 994 3034 1497 
Q 3034 2003 2786 2293 
Q 2538 2584 2113 2584 
z
M 3366 4563 
L 3366 3988 
Q 3128 4100 2886 4159 
Q 2644 4219 2406 4219 
Q 1781 4219 1451 3797 
Q 1122 3375 1075 2522 
Q 1259 2794 1537 2939 
Q 1816 3084 2150 3084 
Q 2853 3084 3261 2657 
Q 3669 2231 3669 1497 
Q 3669 778 3244 343 
Q 2819 -91 2113 -91 
Q 1303 -91 875 529 
Q 447 1150 447 2328 
Q 447 3434 972 4092 
Q 1497 4750 2381 4750 
Q 2619 4750 2861 4703 
Q 3103 4656 3366 4563 
z
" transform="scale(0.015625)"/>
     </defs>
     <use xlink:href="#DejaVuSans-32"/>
     <use xlink:href="#DejaVuSans-36" transform="translate(63.623047 0)"/>
    </g>
   </g>
   <g id="text_6">
    <!-- 1 -->
    <g transform="translate(398.720014 311.917833) scale(0.1 -0.1)">
     <use xlink:href="#DejaVuSans-31"/>
    </g>
   </g>
   <g id="text_7">
    <!-- CpuRec -->
    <g transform="translate(189.643857 64.764102) scale(0.12 -0.12)">
     <defs>
      <path id="DejaVuSans-43" d="M 4122 4306 
L 4122 3641 
Q 3803 3938 3442 4084 
Q 3081 4231 2675 4231 
Q 1875 4231 1450 3742 
Q 1025 3253 1025 2328 
Q 1025 1406 1450 917 
Q 1875 428 2675 428 
Q 3081 428 3442 575 
Q 3803 722 4122 1019 
L 4122 359 
Q 3791 134 3420 21 
Q 3050 -91 2638 -91 
Q 1578 -91 968 557 
Q 359 1206 359 2328 
Q 359 3453 968 4101 
Q 1578 4750 2638 4750 
Q 3056 4750 3426 4639 
Q 3797 4528 4122 4306 
z
" transform="scale(0.015625)"/>
      <path id="DejaVuSans-70" d="M 1159 525 
L 1159 -1331 
L 581 -1331 
L 581 3500 
L 1159 3500 
L 1159 2969 
Q 1341 3281 1617 3432 
Q 1894 3584 2278 3584 
Q 2916 3584 3314 3078 
Q 3713 2572 3713 1747 
Q 3713 922 3314 415 
Q 2916 -91 2278 -91 
Q 1894 -91 1617 61 
Q 1341 213 1159 525 
z
M 3116 1747 
Q 3116 2381 2855 2742 
Q 2594 3103 2138 3103 
Q 1681 3103 1420 2742 
Q 1159 2381 1159 1747 
Q 1159 1113 1420 752 
Q 1681 391 2138 391 
Q 2594 391 2855 752 
Q 3116 1113 3116 1747 
z
" transform="scale(0.015625)"/>
      <path id="DejaVuSans-75" d="M 544 1381 
L 544 3500 
L 1119 3500 
L 1119 1403 
Q 1119 906 1312 657 
Q 1506 409 1894 409 
Q 2359 409 2629 706 
Q 2900 1003 2900 1516 
L 2900 3500 
L 3475 3500 
L 3475 0 
L 2900 0 
L 2900 538 
Q 2691 219 2414 64 
Q 2138 -91 1772 -91 
Q 1169 -91 856 284 
Q 544 659 544 1381 
z
M 1991 3584 
L 1991 3584 
z
" transform="scale(0.015625)"/>
      <path id="DejaVuSans-52" d="M 2841 2188 
Q 3044 2119 3236 1894 
Q 3428 1669 3622 1275 
L 4263 0 
L 3584 0 
L 2988 1197 
Q 2756 1666 2539 1819 
Q 2322 1972 1947 1972 
L 1259 1972 
L 1259 0 
L 628 0 
L 628 4666 
L 2053 4666 
Q 2853 4666 3247 4331 
Q 3641 3997 3641 3322 
Q 3641 2881 3436 2590 
Q 3231 2300 2841 2188 
z
M 1259 4147 
L 1259 2491 
L 2053 2491 
Q 2509 2491 2742 2702 
Q 2975 2913 2975 3322 
Q 2975 3731 2742 3939 
Q 2509 4147 2053 4147 
L 1259 4147 
z
" transform="scale(0.015625)"/>
      <path id="DejaVuSans-65" d="M 3597 1894 
L 3597 1613 
L 953 1613 
Q 991 1019 1311 708 
Q 1631 397 2203 397 
Q 2534 397 2845 478 
Q 3156 559 3463 722 
L 3463 178 
Q 3153 47 2828 -22 
Q 2503 -91 2169 -91 
Q 1331 -91 842 396 
Q 353 884 353 1716 
Q 353 2575 817 3079 
Q 1281 3584 2069 3584 
Q 2775 3584 3186 3129 
Q 3597 2675 3597 1894 
z
M 3022 2063 
Q 3016 2534 2758 2815 
Q 2500 3097 2075 3097 
Q 1594 3097 1305 2825 
Q 1016 2553 972 2059 
L 3022 2063 
z
" transform="scale(0.015625)"/>
      <path id="DejaVuSans-63" d="M 3122 3366 
L 3122 2828 
Q 2878 2963 2633 3030 
Q 2388 3097 2138 3097 
Q 1578 3097 1268 2742 
Q 959 2388 959 1747 
Q 959 1106 1268 751 
Q 1578 397 2138 397 
Q 2388 397 2633 464 
Q 2878 531 3122 666 
L 3122 134 
Q 2881 22 2623 -34 
Q 2366 -91 2075 -91 
Q 1284 -91 818 406 
Q 353 903 353 1747 
Q 353 2603 823 3093 
Q 1294 3584 2113 3584 
Q 2378 3584 2631 3529 
Q 2884 3475 3122 3366 
z
" transform="scale(0.015625)"/>
     </defs>
     <use xlink:href="#DejaVuSans-43"/>
     <use xlink:href="#DejaVuSans-70" transform="translate(69.824219 0)"/>
     <use xlink:href="#DejaVuSans-75" transform="translate(133.300781 0)"/>
     <use xlink:href="#DejaVuSans-52" transform="translate(196.679688 0)"/>
     <use xlink:href="#DejaVuSans-65" transform="translate(261.662109 0)"/>
     <use xlink:href="#DejaVuSans-63" transform="translate(323.185547 0)"/>
    </g>
   </g>
   <g id="text_8">
    <!-- ISAdetect -->
    <g transform="translate(527.312868 149.442551) scale(0.12 -0.12)">
     <defs>
      <path id="DejaVuSans-49" d="M 628 4666 
L 1259 4666 
L 1259 0 
L 628 0 
L 628 4666 
z
" transform="scale(0.015625)"/>
      <path id="DejaVuSans-53" d="M 3425 4513 
L 3425 3897 
Q 3066 4069 2747 4153 
Q 2428 4238 2131 4238 
Q 1616 4238 1336 4038 
Q 1056 3838 1056 3469 
Q 1056 3159 1242 3001 
Q 1428 2844 1947 2747 
L 2328 2669 
Q 3034 2534 3370 2195 
Q 3706 1856 3706 1288 
Q 3706 609 3251 259 
Q 2797 -91 1919 -91 
Q 1588 -91 1214 -16 
Q 841 59 441 206 
L 441 856 
Q 825 641 1194 531 
Q 1563 422 1919 422 
Q 2459 422 2753 634 
Q 3047 847 3047 1241 
Q 3047 1584 2836 1778 
Q 2625 1972 2144 2069 
L 1759 2144 
Q 1053 2284 737 2584 
Q 422 2884 422 3419 
Q 422 4038 858 4394 
Q 1294 4750 2059 4750 
Q 2388 4750 2728 4690 
Q 3069 4631 3425 4513 
z
" transform="scale(0.015625)"/>
      <path id="DejaVuSans-41" d="M 2188 4044 
L 1331 1722 
L 3047 1722 
L 2188 4044 
z
M 1831 4666 
L 2547 4666 
L 4325 0 
L 3669 0 
L 3244 1197 
L 1141 1197 
L 716 0 
L 50 0 
L 1831 4666 
z
" transform="scale(0.015625)"/>
      <path id="DejaVuSans-64" d="M 2906 2969 
L 2906 4863 
L 3481 4863 
L 3481 0 
L 2906 0 
L 2906 525 
Q 2725 213 2448 61 
Q 2172 -91 1784 -91 
Q 1150 -91 751 415 
Q 353 922 353 1747 
Q 353 2572 751 3078 
Q 1150 3584 1784 3584 
Q 2172 3584 2448 3432 
Q 2725 3281 2906 2969 
z
M 947 1747 
Q 947 1113 1208 752 
Q 1469 391 1925 391 
Q 2381 391 2643 752 
Q 2906 1113 2906 1747 
Q 2906 2381 2643 2742 
Q 2381 3103 1925 3103 
Q 1469 3103 1208 2742 
Q 947 2381 947 1747 
z
" transform="scale(0.015625)"/>
      <path id="DejaVuSans-74" d="M 1172 4494 
L 1172 3500 
L 2356 3500 
L 2356 3053 
L 1172 3053 
L 1172 1153 
Q 1172 725 1289 603 
Q 1406 481 1766 481 
L 2356 481 
L 2356 0 
L 1766 0 
Q 1100 0 847 248 
Q 594 497 594 1153 
L 594 3053 
L 172 3053 
L 172 3500 
L 594 3500 
L 594 4494 
L 1172 4494 
z
" transform="scale(0.015625)"/>
     </defs>
     <use xlink:href="#DejaVuSans-49"/>
     <use xlink:href="#DejaVuSans-53" transform="translate(29.492188 0)"/>
     <use xlink:href="#DejaVuSans-41" transform="translate(94.84375 0)"/>
     <use xlink:href="#DejaVuSans-64" transform="translate(161.501953 0)"/>
     <use xlink:href="#DejaVuSans-65" transform="translate(224.978516 0)"/>
     <use xlink:href="#DejaVuSans-74" transform="translate(286.501953 0)"/>
     <use xlink:href="#DejaVuSans-65" transform="translate(325.710938 0)"/>
     <use xlink:href="#DejaVuSans-63" transform="translate(387.234375 0)"/>
     <use xlink:href="#DejaVuSans-74" transform="translate(442.214844 0)"/>
    </g>
   </g>
   <g id="text_9">
    <!-- Buildcross -->
    <g transform="translate(268.723143 550.42647) scale(0.12 -0.12)">
     <defs>
      <path id="DejaVuSans-42" d="M 1259 2228 
L 1259 519 
L 2272 519 
Q 2781 519 3026 730 
Q 3272 941 3272 1375 
Q 3272 1813 3026 2020 
Q 2781 2228 2272 2228 
L 1259 2228 
z
M 1259 4147 
L 1259 2741 
L 2194 2741 
Q 2656 2741 2882 2914 
Q 3109 3088 3109 3444 
Q 3109 3797 2882 3972 
Q 2656 4147 2194 4147 
L 1259 4147 
z
M 628 4666 
L 2241 4666 
Q 2963 4666 3353 4366 
Q 3744 4066 3744 3513 
Q 3744 3084 3544 2831 
Q 3344 2578 2956 2516 
Q 3422 2416 3680 2098 
Q 3938 1781 3938 1306 
Q 3938 681 3513 340 
Q 3088 0 2303 0 
L 628 0 
L 628 4666 
z
" transform="scale(0.015625)"/>
      <path id="DejaVuSans-69" d="M 603 3500 
L 1178 3500 
L 1178 0 
L 603 0 
L 603 3500 
z
M 603 4863 
L 1178 4863 
L 1178 4134 
L 603 4134 
L 603 4863 
z
" transform="scale(0.015625)"/>
      <path id="DejaVuSans-6c" d="M 603 4863 
L 1178 4863 
L 1178 0 
L 603 0 
L 603 4863 
z
" transform="scale(0.015625)"/>
      <path id="DejaVuSans-72" d="M 2631 2963 
Q 2534 3019 2420 3045 
Q 2306 3072 2169 3072 
Q 1681 3072 1420 2755 
Q 1159 2438 1159 1844 
L 1159 0 
L 581 0 
L 581 3500 
L 1159 3500 
L 1159 2956 
Q 1341 3275 1631 3429 
Q 1922 3584 2338 3584 
Q 2397 3584 2469 3576 
Q 2541 3569 2628 3553 
L 2631 2963 
z
" transform="scale(0.015625)"/>
      <path id="DejaVuSans-6f" d="M 1959 3097 
Q 1497 3097 1228 2736 
Q 959 2375 959 1747 
Q 959 1119 1226 758 
Q 1494 397 1959 397 
Q 2419 397 2687 759 
Q 2956 1122 2956 1747 
Q 2956 2369 2687 2733 
Q 2419 3097 1959 3097 
z
M 1959 3584 
Q 2709 3584 3137 3096 
Q 3566 2609 3566 1747 
Q 3566 888 3137 398 
Q 2709 -91 1959 -91 
Q 1206 -91 779 398 
Q 353 888 353 1747 
Q 353 2609 779 3096 
Q 1206 3584 1959 3584 
z
" transform="scale(0.015625)"/>
      <path id="DejaVuSans-73" d="M 2834 3397 
L 2834 2853 
Q 2591 2978 2328 3040 
Q 2066 3103 1784 3103 
Q 1356 3103 1142 2972 
Q 928 2841 928 2578 
Q 928 2378 1081 2264 
Q 1234 2150 1697 2047 
L 1894 2003 
Q 2506 1872 2764 1633 
Q 3022 1394 3022 966 
Q 3022 478 2636 193 
Q 2250 -91 1575 -91 
Q 1294 -91 989 -36 
Q 684 19 347 128 
L 347 722 
Q 666 556 975 473 
Q 1284 391 1588 391 
Q 1994 391 2212 530 
Q 2431 669 2431 922 
Q 2431 1156 2273 1281 
Q 2116 1406 1581 1522 
L 1381 1569 
Q 847 1681 609 1914 
Q 372 2147 372 2553 
Q 372 3047 722 3315 
Q 1072 3584 1716 3584 
Q 2034 3584 2315 3537 
Q 2597 3491 2834 3397 
z
" transform="scale(0.015625)"/>
     </defs>
     <use xlink:href="#DejaVuSans-42"/>
     <use xlink:href="#DejaVuSans-75" transform="translate(68.603516 0)"/>
     <use xlink:href="#DejaVuSans-69" transform="translate(131.982422 0)"/>
     <use xlink:href="#DejaVuSans-6c" transform="translate(159.765625 0)"/>
     <use xlink:href="#DejaVuSans-64" transform="translate(187.548828 0)"/>
     <use xlink:href="#DejaVuSans-63" transform="translate(251.025391 0)"/>
     <use xlink:href="#DejaVuSans-72" transform="translate(306.005859 0)"/>
     <use xlink:href="#DejaVuSans-6f" transform="translate(344.869141 0)"/>
     <use xlink:href="#DejaVuSans-73" transform="translate(406.050781 0)"/>
     <use xlink:href="#DejaVuSans-73" transform="translate(458.150391 0)"/>
    </g>
   </g>
   <g id="text_10">
    <!-- ISA overlap in datasets -->
    <g transform="translate(290.67 20.88) scale(0.12 -0.12)">
     <defs>
      <path id="DejaVuSans-20" transform="scale(0.015625)"/>
      <path id="DejaVuSans-76" d="M 191 3500 
L 800 3500 
L 1894 563 
L 2988 3500 
L 3597 3500 
L 2284 0 
L 1503 0 
L 191 3500 
z
" transform="scale(0.015625)"/>
      <path id="DejaVuSans-61" d="M 2194 1759 
Q 1497 1759 1228 1600 
Q 959 1441 959 1056 
Q 959 750 1161 570 
Q 1363 391 1709 391 
Q 2188 391 2477 730 
Q 2766 1069 2766 1631 
L 2766 1759 
L 2194 1759 
z
M 3341 1997 
L 3341 0 
L 2766 0 
L 2766 531 
Q 2569 213 2275 61 
Q 1981 -91 1556 -91 
Q 1019 -91 701 211 
Q 384 513 384 1019 
Q 384 1609 779 1909 
Q 1175 2209 1959 2209 
L 2766 2209 
L 2766 2266 
Q 2766 2663 2505 2880 
Q 2244 3097 1772 3097 
Q 1472 3097 1187 3025 
Q 903 2953 641 2809 
L 641 3341 
Q 956 3463 1253 3523 
Q 1550 3584 1831 3584 
Q 2591 3584 2966 3190 
Q 3341 2797 3341 1997 
z
" transform="scale(0.015625)"/>
      <path id="DejaVuSans-6e" d="M 3513 2113 
L 3513 0 
L 2938 0 
L 2938 2094 
Q 2938 2591 2744 2837 
Q 2550 3084 2163 3084 
Q 1697 3084 1428 2787 
Q 1159 2491 1159 1978 
L 1159 0 
L 581 0 
L 581 3500 
L 1159 3500 
L 1159 2956 
Q 1366 3272 1645 3428 
Q 1925 3584 2291 3584 
Q 2894 3584 3203 3211 
Q 3513 2838 3513 2113 
z
" transform="scale(0.015625)"/>
     </defs>
     <use xlink:href="#DejaVuSans-49"/>
     <use xlink:href="#DejaVuSans-53" transform="translate(29.492188 0)"/>
     <use xlink:href="#DejaVuSans-41" transform="translate(94.84375 0)"/>
     <use xlink:href="#DejaVuSans-20" transform="translate(163.251953 0)"/>
     <use xlink:href="#DejaVuSans-6f" transform="translate(195.039062 0)"/>
     <use xlink:href="#DejaVuSans-76" transform="translate(256.220703 0)"/>
     <use xlink:href="#DejaVuSans-65" transform="translate(315.400391 0)"/>
     <use xlink:href="#DejaVuSans-72" transform="translate(376.923828 0)"/>
     <use xlink:href="#DejaVuSans-6c" transform="translate(418.037109 0)"/>
     <use xlink:href="#DejaVuSans-61" transform="translate(445.820312 0)"/>
     <use xlink:href="#DejaVuSans-70" transform="translate(507.099609 0)"/>
     <use xlink:href="#DejaVuSans-20" transform="translate(570.576172 0)"/>
     <use xlink:href="#DejaVuSans-69" transform="translate(602.363281 0)"/>
     <use xlink:href="#DejaVuSans-6e" transform="translate(630.146484 0)"/>
     <use xlink:href="#DejaVuSans-20" transform="translate(693.525391 0)"/>
     <use xlink:href="#DejaVuSans-64" transform="translate(725.3125 0)"/>
     <use xlink:href="#DejaVuSans-61" transform="translate(788.789062 0)"/>
     <use xlink:href="#DejaVuSans-74" transform="translate(850.068359 0)"/>
     <use xlink:href="#DejaVuSans-61" transform="translate(889.277344 0)"/>
     <use xlink:href="#DejaVuSans-73" transform="translate(950.556641 0)"/>
     <use xlink:href="#DejaVuSans-65" transform="translate(1002.65625 0)"/>
     <use xlink:href="#DejaVuSans-74" transform="translate(1064.179688 0)"/>
     <use xlink:href="#DejaVuSans-73" transform="translate(1103.388672 0)"/>
    </g>
   </g>
  </g>
 </g>
 <defs>
  <clipPath id="pfe21f71911">
   <rect x="103.030075" y="26.88" width="513.939849" height="538.32"/>
  </clipPath>
 </defs>
</svg>
