<?xml version="1.0" encoding="utf-8" standalone="no"?>
<!DOCTYPE svg PUBLIC "-//W3C//DTD SVG 1.1//EN"
  "http://www.w3.org/Graphics/SVG/1.1/DTD/svg11.dtd">
<svg xmlns:xlink="http://www.w3.org/1999/xlink" width="648pt" height="864pt" viewBox="0 0 648 864" xmlns="http://www.w3.org/2000/svg" version="1.1">
 <metadata>
  <rdf:RDF xmlns:dc="http://purl.org/dc/elements/1.1/" xmlns:cc="http://creativecommons.org/ns#" xmlns:rdf="http://www.w3.org/1999/02/22-rdf-syntax-ns#">
   <cc:Work>
    <dc:type rdf:resource="http://purl.org/dc/dcmitype/StillImage"/>
    <dc:date>2025-05-14T10:39:18.663730</dc:date>
    <dc:format>image/svg+xml</dc:format>
    <dc:creator>
     <cc:Agent>
      <dc:title>Matplotlib v3.10.1, https://matplotlib.org/</dc:title>
     </cc:Agent>
    </dc:creator>
   </cc:Work>
  </rdf:RDF>
 </metadata>
 <defs>
  <style type="text/css">*{stroke-linejoin: round; stroke-linecap: butt}</style>
 </defs>
 <g id="figure_1">
  <g id="patch_1">
   <path d="M 0 864 
L 648 864 
L 648 0 
L 0 0 
z
" style="fill: #ffffff"/>
  </g>
  <g id="axes_1">
   <g id="patch_2">
    <path d="M 78.28 822.04 
L 629.28 822.04 
L 629.28 10.8 
L 78.28 10.8 
z
" style="fill: #ffffff"/>
   </g>
   <g id="patch_3">
    <path d="M 78.28 785.165455 
L 94.478148 785.165455 
L 94.478148 759.288581 
L 78.28 759.288581 
z
" clip-path="url(#pe60ffa8c9d)" style="fill: #9acd32"/>
   </g>
   <g id="patch_4">
    <path d="M 78.28 752.819362 
L 318.809182 752.819362 
L 318.809182 726.942488 
L 78.28 726.942488 
z
" clip-path="url(#pe60ffa8c9d)" style="fill: #9acd32"/>
   </g>
   <g id="patch_5">
    <path d="M 78.28 720.47327 
L 341.04052 720.47327 
L 341.04052 694.596396 
L 78.28 694.596396 
z
" clip-path="url(#pe60ffa8c9d)" style="fill: #9acd32"/>
   </g>
   <g id="patch_6">
    <path d="M 78.28 688.127177 
L 352.496041 688.127177 
L 352.496041 662.250303 
L 78.28 662.250303 
z
" clip-path="url(#pe60ffa8c9d)" style="fill: #9acd32"/>
   </g>
   <g id="patch_7">
    <path d="M 78.28 655.781085 
L 353.424249 655.781085 
L 353.424249 629.904211 
L 78.28 629.904211 
z
" clip-path="url(#pe60ffa8c9d)" style="fill: #9acd32"/>
   </g>
   <g id="patch_8">
    <path d="M 78.28 623.434992 
L 373.42213 623.434992 
L 373.42213 597.558118 
L 78.28 597.558118 
z
" clip-path="url(#pe60ffa8c9d)" style="fill: #9acd32"/>
   </g>
   <g id="patch_9">
    <path d="M 78.28 591.0889 
L 375.900528 591.0889 
L 375.900528 565.212026 
L 78.28 565.212026 
z
" clip-path="url(#pe60ffa8c9d)" style="fill: #9acd32"/>
   </g>
   <g id="patch_10">
    <path d="M 78.28 558.742807 
L 398.127901 558.742807 
L 398.127901 532.865933 
L 78.28 532.865933 
z
" clip-path="url(#pe60ffa8c9d)" style="fill: #9acd32"/>
   </g>
   <g id="patch_11">
    <path d="M 78.28 526.396715 
L 403.436967 526.396715 
L 403.436967 500.519841 
L 78.28 500.519841 
z
" clip-path="url(#pe60ffa8c9d)" style="fill: #9acd32"/>
   </g>
   <g id="patch_12">
    <path d="M 78.28 494.050622 
L 482.68703 494.050622 
L 482.68703 468.173748 
L 78.28 468.173748 
z
" clip-path="url(#pe60ffa8c9d)" style="fill: #9acd32"/>
   </g>
   <g id="patch_13">
    <path d="M 78.28 461.70453 
L 510.52739 461.70453 
L 510.52739 435.827656 
L 78.28 435.827656 
z
" clip-path="url(#pe60ffa8c9d)" style="fill: #9acd32"/>
   </g>
   <g id="patch_14">
    <path d="M 78.28 429.358437 
L 525.339263 429.358437 
L 525.339263 403.481563 
L 78.28 403.481563 
z
" clip-path="url(#pe60ffa8c9d)" style="fill: #9acd32"/>
   </g>
   <g id="patch_15">
    <path d="M 78.28 397.012344 
L 561.616536 397.012344 
L 561.616536 371.13547 
L 78.28 371.13547 
z
" clip-path="url(#pe60ffa8c9d)" style="fill: #9acd32"/>
   </g>
   <g id="patch_16">
    <path d="M 78.28 364.666252 
L 612.347007 364.666252 
L 612.347007 338.789378 
L 78.28 338.789378 
z
" clip-path="url(#pe60ffa8c9d)" style="fill: #9acd32"/>
   </g>
   <g id="patch_17">
    <path d="M 78.28 332.320159 
L 612.862637 332.320159 
L 612.862637 306.443285 
L 78.28 306.443285 
z
" clip-path="url(#pe60ffa8c9d)" style="fill: #9acd32"/>
   </g>
   <g id="patch_18">
    <path d="M 78.28 299.974067 
L 615.103255 299.974067 
L 615.103255 274.097193 
L 78.28 274.097193 
z
" clip-path="url(#pe60ffa8c9d)" style="fill: #9acd32"/>
   </g>
   <g id="patch_19">
    <path d="M 78.28 267.627974 
L 615.691164 267.627974 
L 615.691164 241.7511 
L 78.28 241.7511 
z
" clip-path="url(#pe60ffa8c9d)" style="fill: #9acd32"/>
   </g>
   <g id="patch_20">
    <path d="M 78.28 235.281882 
L 620.72938 235.281882 
L 620.72938 209.405008 
L 78.28 209.405008 
z
" clip-path="url(#pe60ffa8c9d)" style="fill: #9acd32"/>
   </g>
   <g id="patch_21">
    <path d="M 78.28 202.935789 
L 621.331902 202.935789 
L 621.331902 177.058915 
L 78.28 177.058915 
z
" clip-path="url(#pe60ffa8c9d)" style="fill: #9acd32"/>
   </g>
   <g id="patch_22">
    <path d="M 78.28 170.589697 
L 624.534157 170.589697 
L 624.534157 144.712823 
L 78.28 144.712823 
z
" clip-path="url(#pe60ffa8c9d)" style="fill: #9acd32"/>
   </g>
   <g id="patch_23">
    <path d="M 78.28 138.243604 
L 624.543194 138.243604 
L 624.543194 112.36673 
L 78.28 112.36673 
z
" clip-path="url(#pe60ffa8c9d)" style="fill: #9acd32"/>
   </g>
   <g id="patch_24">
    <path d="M 78.28 105.897512 
L 626.107158 105.897512 
L 626.107158 80.020638 
L 78.28 80.020638 
z
" clip-path="url(#pe60ffa8c9d)" style="fill: #9acd32"/>
   </g>
   <g id="patch_25">
    <path d="M 78.28 73.551419 
L 628.723588 73.551419 
L 628.723588 47.674545 
L 78.28 47.674545 
z
" clip-path="url(#pe60ffa8c9d)" style="fill: #9acd32"/>
   </g>
   <g id="matplotlib.axis_1">
    <g id="xtick_1">
     <g id="line2d_1">
      <defs>
       <path id="m90bde3b3f9" d="M 0 0 
L 0 3.5 
" style="stroke: #000000; stroke-width: 0.8"/>
      </defs>
      <g>
       <use xlink:href="#m90bde3b3f9" x="78.28" y="822.04" style="stroke: #000000; stroke-width: 0.8"/>
      </g>
     </g>
     <g id="text_1">
      <!-- 0.0 -->
      <g transform="translate(70.328438 836.638438) scale(0.1 -0.1)">
       <defs>
        <path id="DejaVuSans-30" d="M 2034 4250 
Q 1547 4250 1301 3770 
Q 1056 3291 1056 2328 
Q 1056 1369 1301 889 
Q 1547 409 2034 409 
Q 2525 409 2770 889 
Q 3016 1369 3016 2328 
Q 3016 3291 2770 3770 
Q 2525 4250 2034 4250 
z
M 2034 4750 
Q 2819 4750 3233 4129 
Q 3647 3509 3647 2328 
Q 3647 1150 3233 529 
Q 2819 -91 2034 -91 
Q 1250 -91 836 529 
Q 422 1150 422 2328 
Q 422 3509 836 4129 
Q 1250 4750 2034 4750 
z
" transform="scale(0.015625)"/>
        <path id="DejaVuSans-2e" d="M 684 794 
L 1344 794 
L 1344 0 
L 684 0 
L 684 794 
z
" transform="scale(0.015625)"/>
       </defs>
       <use xlink:href="#DejaVuSans-30"/>
       <use xlink:href="#DejaVuSans-2e" transform="translate(63.623047 0)"/>
       <use xlink:href="#DejaVuSans-30" transform="translate(95.410156 0)"/>
      </g>
     </g>
    </g>
    <g id="xtick_2">
     <g id="line2d_2">
      <g>
       <use xlink:href="#m90bde3b3f9" x="188.48" y="822.04" style="stroke: #000000; stroke-width: 0.8"/>
      </g>
     </g>
     <g id="text_2">
      <!-- 0.2 -->
      <g transform="translate(180.528438 836.638438) scale(0.1 -0.1)">
       <defs>
        <path id="DejaVuSans-32" d="M 1228 531 
L 3431 531 
L 3431 0 
L 469 0 
L 469 531 
Q 828 903 1448 1529 
Q 2069 2156 2228 2338 
Q 2531 2678 2651 2914 
Q 2772 3150 2772 3378 
Q 2772 3750 2511 3984 
Q 2250 4219 1831 4219 
Q 1534 4219 1204 4116 
Q 875 4013 500 3803 
L 500 4441 
Q 881 4594 1212 4672 
Q 1544 4750 1819 4750 
Q 2544 4750 2975 4387 
Q 3406 4025 3406 3419 
Q 3406 3131 3298 2873 
Q 3191 2616 2906 2266 
Q 2828 2175 2409 1742 
Q 1991 1309 1228 531 
z
" transform="scale(0.015625)"/>
       </defs>
       <use xlink:href="#DejaVuSans-30"/>
       <use xlink:href="#DejaVuSans-2e" transform="translate(63.623047 0)"/>
       <use xlink:href="#DejaVuSans-32" transform="translate(95.410156 0)"/>
      </g>
     </g>
    </g>
    <g id="xtick_3">
     <g id="line2d_3">
      <g>
       <use xlink:href="#m90bde3b3f9" x="298.68" y="822.04" style="stroke: #000000; stroke-width: 0.8"/>
      </g>
     </g>
     <g id="text_3">
      <!-- 0.4 -->
      <g transform="translate(290.728437 836.638438) scale(0.1 -0.1)">
       <defs>
        <path id="DejaVuSans-34" d="M 2419 4116 
L 825 1625 
L 2419 1625 
L 2419 4116 
z
M 2253 4666 
L 3047 4666 
L 3047 1625 
L 3713 1625 
L 3713 1100 
L 3047 1100 
L 3047 0 
L 2419 0 
L 2419 1100 
L 313 1100 
L 313 1709 
L 2253 4666 
z
" transform="scale(0.015625)"/>
       </defs>
       <use xlink:href="#DejaVuSans-30"/>
       <use xlink:href="#DejaVuSans-2e" transform="translate(63.623047 0)"/>
       <use xlink:href="#DejaVuSans-34" transform="translate(95.410156 0)"/>
      </g>
     </g>
    </g>
    <g id="xtick_4">
     <g id="line2d_4">
      <g>
       <use xlink:href="#m90bde3b3f9" x="408.88" y="822.04" style="stroke: #000000; stroke-width: 0.8"/>
      </g>
     </g>
     <g id="text_4">
      <!-- 0.6 -->
      <g transform="translate(400.928437 836.638438) scale(0.1 -0.1)">
       <defs>
        <path id="DejaVuSans-36" d="M 2113 2584 
Q 1688 2584 1439 2293 
Q 1191 2003 1191 1497 
Q 1191 994 1439 701 
Q 1688 409 2113 409 
Q 2538 409 2786 701 
Q 3034 994 3034 1497 
Q 3034 2003 2786 2293 
Q 2538 2584 2113 2584 
z
M 3366 4563 
L 3366 3988 
Q 3128 4100 2886 4159 
Q 2644 4219 2406 4219 
Q 1781 4219 1451 3797 
Q 1122 3375 1075 2522 
Q 1259 2794 1537 2939 
Q 1816 3084 2150 3084 
Q 2853 3084 3261 2657 
Q 3669 2231 3669 1497 
Q 3669 778 3244 343 
Q 2819 -91 2113 -91 
Q 1303 -91 875 529 
Q 447 1150 447 2328 
Q 447 3434 972 4092 
Q 1497 4750 2381 4750 
Q 2619 4750 2861 4703 
Q 3103 4656 3366 4563 
z
" transform="scale(0.015625)"/>
       </defs>
       <use xlink:href="#DejaVuSans-30"/>
       <use xlink:href="#DejaVuSans-2e" transform="translate(63.623047 0)"/>
       <use xlink:href="#DejaVuSans-36" transform="translate(95.410156 0)"/>
      </g>
     </g>
    </g>
    <g id="xtick_5">
     <g id="line2d_5">
      <g>
       <use xlink:href="#m90bde3b3f9" x="519.08" y="822.04" style="stroke: #000000; stroke-width: 0.8"/>
      </g>
     </g>
     <g id="text_5">
      <!-- 0.8 -->
      <g transform="translate(511.128438 836.638438) scale(0.1 -0.1)">
       <defs>
        <path id="DejaVuSans-38" d="M 2034 2216 
Q 1584 2216 1326 1975 
Q 1069 1734 1069 1313 
Q 1069 891 1326 650 
Q 1584 409 2034 409 
Q 2484 409 2743 651 
Q 3003 894 3003 1313 
Q 3003 1734 2745 1975 
Q 2488 2216 2034 2216 
z
M 1403 2484 
Q 997 2584 770 2862 
Q 544 3141 544 3541 
Q 544 4100 942 4425 
Q 1341 4750 2034 4750 
Q 2731 4750 3128 4425 
Q 3525 4100 3525 3541 
Q 3525 3141 3298 2862 
Q 3072 2584 2669 2484 
Q 3125 2378 3379 2068 
Q 3634 1759 3634 1313 
Q 3634 634 3220 271 
Q 2806 -91 2034 -91 
Q 1263 -91 848 271 
Q 434 634 434 1313 
Q 434 1759 690 2068 
Q 947 2378 1403 2484 
z
M 1172 3481 
Q 1172 3119 1398 2916 
Q 1625 2713 2034 2713 
Q 2441 2713 2670 2916 
Q 2900 3119 2900 3481 
Q 2900 3844 2670 4047 
Q 2441 4250 2034 4250 
Q 1625 4250 1398 4047 
Q 1172 3844 1172 3481 
z
" transform="scale(0.015625)"/>
       </defs>
       <use xlink:href="#DejaVuSans-30"/>
       <use xlink:href="#DejaVuSans-2e" transform="translate(63.623047 0)"/>
       <use xlink:href="#DejaVuSans-38" transform="translate(95.410156 0)"/>
      </g>
     </g>
    </g>
    <g id="xtick_6">
     <g id="line2d_6">
      <g>
       <use xlink:href="#m90bde3b3f9" x="629.28" y="822.04" style="stroke: #000000; stroke-width: 0.8"/>
      </g>
     </g>
     <g id="text_6">
      <!-- 1.0 -->
      <g transform="translate(621.328437 836.638438) scale(0.1 -0.1)">
       <defs>
        <path id="DejaVuSans-31" d="M 794 531 
L 1825 531 
L 1825 4091 
L 703 3866 
L 703 4441 
L 1819 4666 
L 2450 4666 
L 2450 531 
L 3481 531 
L 3481 0 
L 794 0 
L 794 531 
z
" transform="scale(0.015625)"/>
       </defs>
       <use xlink:href="#DejaVuSans-31"/>
       <use xlink:href="#DejaVuSans-2e" transform="translate(63.623047 0)"/>
       <use xlink:href="#DejaVuSans-30" transform="translate(95.410156 0)"/>
      </g>
     </g>
    </g>
    <g id="text_7">
     <!-- Mean Accuracy Across All Models -->
     <g transform="translate(270.862031 850.316563) scale(0.1 -0.1)">
      <defs>
       <path id="DejaVuSans-4d" d="M 628 4666 
L 1569 4666 
L 2759 1491 
L 3956 4666 
L 4897 4666 
L 4897 0 
L 4281 0 
L 4281 4097 
L 3078 897 
L 2444 897 
L 1241 4097 
L 1241 0 
L 628 0 
L 628 4666 
z
" transform="scale(0.015625)"/>
       <path id="DejaVuSans-65" d="M 3597 1894 
L 3597 1613 
L 953 1613 
Q 991 1019 1311 708 
Q 1631 397 2203 397 
Q 2534 397 2845 478 
Q 3156 559 3463 722 
L 3463 178 
Q 3153 47 2828 -22 
Q 2503 -91 2169 -91 
Q 1331 -91 842 396 
Q 353 884 353 1716 
Q 353 2575 817 3079 
Q 1281 3584 2069 3584 
Q 2775 3584 3186 3129 
Q 3597 2675 3597 1894 
z
M 3022 2063 
Q 3016 2534 2758 2815 
Q 2500 3097 2075 3097 
Q 1594 3097 1305 2825 
Q 1016 2553 972 2059 
L 3022 2063 
z
" transform="scale(0.015625)"/>
       <path id="DejaVuSans-61" d="M 2194 1759 
Q 1497 1759 1228 1600 
Q 959 1441 959 1056 
Q 959 750 1161 570 
Q 1363 391 1709 391 
Q 2188 391 2477 730 
Q 2766 1069 2766 1631 
L 2766 1759 
L 2194 1759 
z
M 3341 1997 
L 3341 0 
L 2766 0 
L 2766 531 
Q 2569 213 2275 61 
Q 1981 -91 1556 -91 
Q 1019 -91 701 211 
Q 384 513 384 1019 
Q 384 1609 779 1909 
Q 1175 2209 1959 2209 
L 2766 2209 
L 2766 2266 
Q 2766 2663 2505 2880 
Q 2244 3097 1772 3097 
Q 1472 3097 1187 3025 
Q 903 2953 641 2809 
L 641 3341 
Q 956 3463 1253 3523 
Q 1550 3584 1831 3584 
Q 2591 3584 2966 3190 
Q 3341 2797 3341 1997 
z
" transform="scale(0.015625)"/>
       <path id="DejaVuSans-6e" d="M 3513 2113 
L 3513 0 
L 2938 0 
L 2938 2094 
Q 2938 2591 2744 2837 
Q 2550 3084 2163 3084 
Q 1697 3084 1428 2787 
Q 1159 2491 1159 1978 
L 1159 0 
L 581 0 
L 581 3500 
L 1159 3500 
L 1159 2956 
Q 1366 3272 1645 3428 
Q 1925 3584 2291 3584 
Q 2894 3584 3203 3211 
Q 3513 2838 3513 2113 
z
" transform="scale(0.015625)"/>
       <path id="DejaVuSans-20" transform="scale(0.015625)"/>
       <path id="DejaVuSans-41" d="M 2188 4044 
L 1331 1722 
L 3047 1722 
L 2188 4044 
z
M 1831 4666 
L 2547 4666 
L 4325 0 
L 3669 0 
L 3244 1197 
L 1141 1197 
L 716 0 
L 50 0 
L 1831 4666 
z
" transform="scale(0.015625)"/>
       <path id="DejaVuSans-63" d="M 3122 3366 
L 3122 2828 
Q 2878 2963 2633 3030 
Q 2388 3097 2138 3097 
Q 1578 3097 1268 2742 
Q 959 2388 959 1747 
Q 959 1106 1268 751 
Q 1578 397 2138 397 
Q 2388 397 2633 464 
Q 2878 531 3122 666 
L 3122 134 
Q 2881 22 2623 -34 
Q 2366 -91 2075 -91 
Q 1284 -91 818 406 
Q 353 903 353 1747 
Q 353 2603 823 3093 
Q 1294 3584 2113 3584 
Q 2378 3584 2631 3529 
Q 2884 3475 3122 3366 
z
" transform="scale(0.015625)"/>
       <path id="DejaVuSans-75" d="M 544 1381 
L 544 3500 
L 1119 3500 
L 1119 1403 
Q 1119 906 1312 657 
Q 1506 409 1894 409 
Q 2359 409 2629 706 
Q 2900 1003 2900 1516 
L 2900 3500 
L 3475 3500 
L 3475 0 
L 2900 0 
L 2900 538 
Q 2691 219 2414 64 
Q 2138 -91 1772 -91 
Q 1169 -91 856 284 
Q 544 659 544 1381 
z
M 1991 3584 
L 1991 3584 
z
" transform="scale(0.015625)"/>
       <path id="DejaVuSans-72" d="M 2631 2963 
Q 2534 3019 2420 3045 
Q 2306 3072 2169 3072 
Q 1681 3072 1420 2755 
Q 1159 2438 1159 1844 
L 1159 0 
L 581 0 
L 581 3500 
L 1159 3500 
L 1159 2956 
Q 1341 3275 1631 3429 
Q 1922 3584 2338 3584 
Q 2397 3584 2469 3576 
Q 2541 3569 2628 3553 
L 2631 2963 
z
" transform="scale(0.015625)"/>
       <path id="DejaVuSans-79" d="M 2059 -325 
Q 1816 -950 1584 -1140 
Q 1353 -1331 966 -1331 
L 506 -1331 
L 506 -850 
L 844 -850 
Q 1081 -850 1212 -737 
Q 1344 -625 1503 -206 
L 1606 56 
L 191 3500 
L 800 3500 
L 1894 763 
L 2988 3500 
L 3597 3500 
L 2059 -325 
z
" transform="scale(0.015625)"/>
       <path id="DejaVuSans-6f" d="M 1959 3097 
Q 1497 3097 1228 2736 
Q 959 2375 959 1747 
Q 959 1119 1226 758 
Q 1494 397 1959 397 
Q 2419 397 2687 759 
Q 2956 1122 2956 1747 
Q 2956 2369 2687 2733 
Q 2419 3097 1959 3097 
z
M 1959 3584 
Q 2709 3584 3137 3096 
Q 3566 2609 3566 1747 
Q 3566 888 3137 398 
Q 2709 -91 1959 -91 
Q 1206 -91 779 398 
Q 353 888 353 1747 
Q 353 2609 779 3096 
Q 1206 3584 1959 3584 
z
" transform="scale(0.015625)"/>
       <path id="DejaVuSans-73" d="M 2834 3397 
L 2834 2853 
Q 2591 2978 2328 3040 
Q 2066 3103 1784 3103 
Q 1356 3103 1142 2972 
Q 928 2841 928 2578 
Q 928 2378 1081 2264 
Q 1234 2150 1697 2047 
L 1894 2003 
Q 2506 1872 2764 1633 
Q 3022 1394 3022 966 
Q 3022 478 2636 193 
Q 2250 -91 1575 -91 
Q 1294 -91 989 -36 
Q 684 19 347 128 
L 347 722 
Q 666 556 975 473 
Q 1284 391 1588 391 
Q 1994 391 2212 530 
Q 2431 669 2431 922 
Q 2431 1156 2273 1281 
Q 2116 1406 1581 1522 
L 1381 1569 
Q 847 1681 609 1914 
Q 372 2147 372 2553 
Q 372 3047 722 3315 
Q 1072 3584 1716 3584 
Q 2034 3584 2315 3537 
Q 2597 3491 2834 3397 
z
" transform="scale(0.015625)"/>
       <path id="DejaVuSans-6c" d="M 603 4863 
L 1178 4863 
L 1178 0 
L 603 0 
L 603 4863 
z
" transform="scale(0.015625)"/>
       <path id="DejaVuSans-64" d="M 2906 2969 
L 2906 4863 
L 3481 4863 
L 3481 0 
L 2906 0 
L 2906 525 
Q 2725 213 2448 61 
Q 2172 -91 1784 -91 
Q 1150 -91 751 415 
Q 353 922 353 1747 
Q 353 2572 751 3078 
Q 1150 3584 1784 3584 
Q 2172 3584 2448 3432 
Q 2725 3281 2906 2969 
z
M 947 1747 
Q 947 1113 1208 752 
Q 1469 391 1925 391 
Q 2381 391 2643 752 
Q 2906 1113 2906 1747 
Q 2906 2381 2643 2742 
Q 2381 3103 1925 3103 
Q 1469 3103 1208 2742 
Q 947 2381 947 1747 
z
" transform="scale(0.015625)"/>
      </defs>
      <use xlink:href="#DejaVuSans-4d"/>
      <use xlink:href="#DejaVuSans-65" transform="translate(86.279297 0)"/>
      <use xlink:href="#DejaVuSans-61" transform="translate(147.802734 0)"/>
      <use xlink:href="#DejaVuSans-6e" transform="translate(209.082031 0)"/>
      <use xlink:href="#DejaVuSans-20" transform="translate(272.460938 0)"/>
      <use xlink:href="#DejaVuSans-41" transform="translate(304.248047 0)"/>
      <use xlink:href="#DejaVuSans-63" transform="translate(370.90625 0)"/>
      <use xlink:href="#DejaVuSans-63" transform="translate(425.886719 0)"/>
      <use xlink:href="#DejaVuSans-75" transform="translate(480.867188 0)"/>
      <use xlink:href="#DejaVuSans-72" transform="translate(544.246094 0)"/>
      <use xlink:href="#DejaVuSans-61" transform="translate(585.359375 0)"/>
      <use xlink:href="#DejaVuSans-63" transform="translate(646.638672 0)"/>
      <use xlink:href="#DejaVuSans-79" transform="translate(701.619141 0)"/>
      <use xlink:href="#DejaVuSans-20" transform="translate(760.798828 0)"/>
      <use xlink:href="#DejaVuSans-41" transform="translate(792.585938 0)"/>
      <use xlink:href="#DejaVuSans-63" transform="translate(859.244141 0)"/>
      <use xlink:href="#DejaVuSans-72" transform="translate(914.224609 0)"/>
      <use xlink:href="#DejaVuSans-6f" transform="translate(953.087891 0)"/>
      <use xlink:href="#DejaVuSans-73" transform="translate(1014.269531 0)"/>
      <use xlink:href="#DejaVuSans-73" transform="translate(1066.369141 0)"/>
      <use xlink:href="#DejaVuSans-20" transform="translate(1118.46875 0)"/>
      <use xlink:href="#DejaVuSans-41" transform="translate(1150.255859 0)"/>
      <use xlink:href="#DejaVuSans-6c" transform="translate(1218.664062 0)"/>
      <use xlink:href="#DejaVuSans-6c" transform="translate(1246.447266 0)"/>
      <use xlink:href="#DejaVuSans-20" transform="translate(1274.230469 0)"/>
      <use xlink:href="#DejaVuSans-4d" transform="translate(1306.017578 0)"/>
      <use xlink:href="#DejaVuSans-6f" transform="translate(1392.296875 0)"/>
      <use xlink:href="#DejaVuSans-64" transform="translate(1453.478516 0)"/>
      <use xlink:href="#DejaVuSans-65" transform="translate(1516.955078 0)"/>
      <use xlink:href="#DejaVuSans-6c" transform="translate(1578.478516 0)"/>
      <use xlink:href="#DejaVuSans-73" transform="translate(1606.261719 0)"/>
     </g>
    </g>
   </g>
   <g id="matplotlib.axis_2">
    <g id="ytick_1">
     <g id="line2d_7">
      <defs>
       <path id="mcc64ab2496" d="M 0 0 
L -3.5 0 
" style="stroke: #000000; stroke-width: 0.8"/>
      </defs>
      <g>
       <use xlink:href="#mcc64ab2496" x="78.28" y="772.227018" style="stroke: #000000; stroke-width: 0.8"/>
      </g>
     </g>
     <g id="text_8">
      <!-- m68k -->
      <g transform="translate(43.02375 776.026236) scale(0.1 -0.1)">
       <defs>
        <path id="DejaVuSans-6d" d="M 3328 2828 
Q 3544 3216 3844 3400 
Q 4144 3584 4550 3584 
Q 5097 3584 5394 3201 
Q 5691 2819 5691 2113 
L 5691 0 
L 5113 0 
L 5113 2094 
Q 5113 2597 4934 2840 
Q 4756 3084 4391 3084 
Q 3944 3084 3684 2787 
Q 3425 2491 3425 1978 
L 3425 0 
L 2847 0 
L 2847 2094 
Q 2847 2600 2669 2842 
Q 2491 3084 2119 3084 
Q 1678 3084 1418 2786 
Q 1159 2488 1159 1978 
L 1159 0 
L 581 0 
L 581 3500 
L 1159 3500 
L 1159 2956 
Q 1356 3278 1631 3431 
Q 1906 3584 2284 3584 
Q 2666 3584 2933 3390 
Q 3200 3197 3328 2828 
z
" transform="scale(0.015625)"/>
        <path id="DejaVuSans-6b" d="M 581 4863 
L 1159 4863 
L 1159 1991 
L 2875 3500 
L 3609 3500 
L 1753 1863 
L 3688 0 
L 2938 0 
L 1159 1709 
L 1159 0 
L 581 0 
L 581 4863 
z
" transform="scale(0.015625)"/>
       </defs>
       <use xlink:href="#DejaVuSans-6d"/>
       <use xlink:href="#DejaVuSans-36" transform="translate(97.412109 0)"/>
       <use xlink:href="#DejaVuSans-38" transform="translate(161.035156 0)"/>
       <use xlink:href="#DejaVuSans-6b" transform="translate(224.658203 0)"/>
      </g>
     </g>
    </g>
    <g id="ytick_2">
     <g id="line2d_8">
      <g>
       <use xlink:href="#mcc64ab2496" x="78.28" y="739.880925" style="stroke: #000000; stroke-width: 0.8"/>
      </g>
     </g>
     <g id="text_9">
      <!-- hppa -->
      <g transform="translate(46.1175 743.680144) scale(0.1 -0.1)">
       <defs>
        <path id="DejaVuSans-68" d="M 3513 2113 
L 3513 0 
L 2938 0 
L 2938 2094 
Q 2938 2591 2744 2837 
Q 2550 3084 2163 3084 
Q 1697 3084 1428 2787 
Q 1159 2491 1159 1978 
L 1159 0 
L 581 0 
L 581 4863 
L 1159 4863 
L 1159 2956 
Q 1366 3272 1645 3428 
Q 1925 3584 2291 3584 
Q 2894 3584 3203 3211 
Q 3513 2838 3513 2113 
z
" transform="scale(0.015625)"/>
        <path id="DejaVuSans-70" d="M 1159 525 
L 1159 -1331 
L 581 -1331 
L 581 3500 
L 1159 3500 
L 1159 2969 
Q 1341 3281 1617 3432 
Q 1894 3584 2278 3584 
Q 2916 3584 3314 3078 
Q 3713 2572 3713 1747 
Q 3713 922 3314 415 
Q 2916 -91 2278 -91 
Q 1894 -91 1617 61 
Q 1341 213 1159 525 
z
M 3116 1747 
Q 3116 2381 2855 2742 
Q 2594 3103 2138 3103 
Q 1681 3103 1420 2742 
Q 1159 2381 1159 1747 
Q 1159 1113 1420 752 
Q 1681 391 2138 391 
Q 2594 391 2855 752 
Q 3116 1113 3116 1747 
z
" transform="scale(0.015625)"/>
       </defs>
       <use xlink:href="#DejaVuSans-68"/>
       <use xlink:href="#DejaVuSans-70" transform="translate(63.378906 0)"/>
       <use xlink:href="#DejaVuSans-70" transform="translate(126.855469 0)"/>
       <use xlink:href="#DejaVuSans-61" transform="translate(190.332031 0)"/>
      </g>
     </g>
    </g>
    <g id="ytick_3">
     <g id="line2d_9">
      <g>
       <use xlink:href="#mcc64ab2496" x="78.28" y="707.534833" style="stroke: #000000; stroke-width: 0.8"/>
      </g>
     </g>
     <g id="text_10">
      <!-- ia64 -->
      <g transform="translate(49.64875 711.334051) scale(0.1 -0.1)">
       <defs>
        <path id="DejaVuSans-69" d="M 603 3500 
L 1178 3500 
L 1178 0 
L 603 0 
L 603 3500 
z
M 603 4863 
L 1178 4863 
L 1178 4134 
L 603 4134 
L 603 4863 
z
" transform="scale(0.015625)"/>
       </defs>
       <use xlink:href="#DejaVuSans-69"/>
       <use xlink:href="#DejaVuSans-61" transform="translate(27.783203 0)"/>
       <use xlink:href="#DejaVuSans-36" transform="translate(89.0625 0)"/>
       <use xlink:href="#DejaVuSans-34" transform="translate(152.685547 0)"/>
      </g>
     </g>
    </g>
    <g id="ytick_4">
     <g id="line2d_10">
      <g>
       <use xlink:href="#mcc64ab2496" x="78.28" y="675.18874" style="stroke: #000000; stroke-width: 0.8"/>
      </g>
     </g>
     <g id="text_11">
      <!-- s390 -->
      <g transform="translate(46.983125 678.987959) scale(0.1 -0.1)">
       <defs>
        <path id="DejaVuSans-33" d="M 2597 2516 
Q 3050 2419 3304 2112 
Q 3559 1806 3559 1356 
Q 3559 666 3084 287 
Q 2609 -91 1734 -91 
Q 1441 -91 1130 -33 
Q 819 25 488 141 
L 488 750 
Q 750 597 1062 519 
Q 1375 441 1716 441 
Q 2309 441 2620 675 
Q 2931 909 2931 1356 
Q 2931 1769 2642 2001 
Q 2353 2234 1838 2234 
L 1294 2234 
L 1294 2753 
L 1863 2753 
Q 2328 2753 2575 2939 
Q 2822 3125 2822 3475 
Q 2822 3834 2567 4026 
Q 2313 4219 1838 4219 
Q 1578 4219 1281 4162 
Q 984 4106 628 3988 
L 628 4550 
Q 988 4650 1302 4700 
Q 1616 4750 1894 4750 
Q 2613 4750 3031 4423 
Q 3450 4097 3450 3541 
Q 3450 3153 3228 2886 
Q 3006 2619 2597 2516 
z
" transform="scale(0.015625)"/>
        <path id="DejaVuSans-39" d="M 703 97 
L 703 672 
Q 941 559 1184 500 
Q 1428 441 1663 441 
Q 2288 441 2617 861 
Q 2947 1281 2994 2138 
Q 2813 1869 2534 1725 
Q 2256 1581 1919 1581 
Q 1219 1581 811 2004 
Q 403 2428 403 3163 
Q 403 3881 828 4315 
Q 1253 4750 1959 4750 
Q 2769 4750 3195 4129 
Q 3622 3509 3622 2328 
Q 3622 1225 3098 567 
Q 2575 -91 1691 -91 
Q 1453 -91 1209 -44 
Q 966 3 703 97 
z
M 1959 2075 
Q 2384 2075 2632 2365 
Q 2881 2656 2881 3163 
Q 2881 3666 2632 3958 
Q 2384 4250 1959 4250 
Q 1534 4250 1286 3958 
Q 1038 3666 1038 3163 
Q 1038 2656 1286 2365 
Q 1534 2075 1959 2075 
z
" transform="scale(0.015625)"/>
       </defs>
       <use xlink:href="#DejaVuSans-73"/>
       <use xlink:href="#DejaVuSans-33" transform="translate(52.099609 0)"/>
       <use xlink:href="#DejaVuSans-39" transform="translate(115.722656 0)"/>
       <use xlink:href="#DejaVuSans-30" transform="translate(179.345703 0)"/>
      </g>
     </g>
    </g>
    <g id="ytick_5">
     <g id="line2d_11">
      <g>
       <use xlink:href="#mcc64ab2496" x="78.28" y="642.842648" style="stroke: #000000; stroke-width: 0.8"/>
      </g>
     </g>
     <g id="text_12">
      <!-- riscv64 -->
      <g transform="translate(35.039375 646.641866) scale(0.1 -0.1)">
       <defs>
        <path id="DejaVuSans-76" d="M 191 3500 
L 800 3500 
L 1894 563 
L 2988 3500 
L 3597 3500 
L 2284 0 
L 1503 0 
L 191 3500 
z
" transform="scale(0.015625)"/>
       </defs>
       <use xlink:href="#DejaVuSans-72"/>
       <use xlink:href="#DejaVuSans-69" transform="translate(41.113281 0)"/>
       <use xlink:href="#DejaVuSans-73" transform="translate(68.896484 0)"/>
       <use xlink:href="#DejaVuSans-63" transform="translate(120.996094 0)"/>
       <use xlink:href="#DejaVuSans-76" transform="translate(175.976562 0)"/>
       <use xlink:href="#DejaVuSans-36" transform="translate(235.15625 0)"/>
       <use xlink:href="#DejaVuSans-34" transform="translate(298.779297 0)"/>
      </g>
     </g>
    </g>
    <g id="ytick_6">
     <g id="line2d_12">
      <g>
       <use xlink:href="#mcc64ab2496" x="78.28" y="610.496555" style="stroke: #000000; stroke-width: 0.8"/>
      </g>
     </g>
     <g id="text_13">
      <!-- arm64 -->
      <g transform="translate(38.750312 614.295774) scale(0.1 -0.1)">
       <use xlink:href="#DejaVuSans-61"/>
       <use xlink:href="#DejaVuSans-72" transform="translate(61.279297 0)"/>
       <use xlink:href="#DejaVuSans-6d" transform="translate(100.642578 0)"/>
       <use xlink:href="#DejaVuSans-36" transform="translate(198.054688 0)"/>
       <use xlink:href="#DejaVuSans-34" transform="translate(261.677734 0)"/>
      </g>
     </g>
    </g>
    <g id="ytick_7">
     <g id="line2d_13">
      <g>
       <use xlink:href="#mcc64ab2496" x="78.28" y="578.150463" style="stroke: #000000; stroke-width: 0.8"/>
      </g>
     </g>
     <g id="text_14">
      <!-- sh4 -->
      <g transform="translate(53.370625 581.949681) scale(0.1 -0.1)">
       <use xlink:href="#DejaVuSans-73"/>
       <use xlink:href="#DejaVuSans-68" transform="translate(52.099609 0)"/>
       <use xlink:href="#DejaVuSans-34" transform="translate(115.478516 0)"/>
      </g>
     </g>
    </g>
    <g id="ytick_8">
     <g id="line2d_14">
      <g>
       <use xlink:href="#mcc64ab2496" x="78.28" y="545.80437" style="stroke: #000000; stroke-width: 0.8"/>
      </g>
     </g>
     <g id="text_15">
      <!-- mips -->
      <g transform="translate(47.203437 549.603589) scale(0.1 -0.1)">
       <use xlink:href="#DejaVuSans-6d"/>
       <use xlink:href="#DejaVuSans-69" transform="translate(97.412109 0)"/>
       <use xlink:href="#DejaVuSans-70" transform="translate(125.195312 0)"/>
       <use xlink:href="#DejaVuSans-73" transform="translate(188.671875 0)"/>
      </g>
     </g>
    </g>
    <g id="ytick_9">
     <g id="line2d_15">
      <g>
       <use xlink:href="#mcc64ab2496" x="78.28" y="513.458278" style="stroke: #000000; stroke-width: 0.8"/>
      </g>
     </g>
     <g id="text_16">
      <!-- s390x -->
      <g transform="translate(41.064375 517.257496) scale(0.1 -0.1)">
       <defs>
        <path id="DejaVuSans-78" d="M 3513 3500 
L 2247 1797 
L 3578 0 
L 2900 0 
L 1881 1375 
L 863 0 
L 184 0 
L 1544 1831 
L 300 3500 
L 978 3500 
L 1906 2253 
L 2834 3500 
L 3513 3500 
z
" transform="scale(0.015625)"/>
       </defs>
       <use xlink:href="#DejaVuSans-73"/>
       <use xlink:href="#DejaVuSans-33" transform="translate(52.099609 0)"/>
       <use xlink:href="#DejaVuSans-39" transform="translate(115.722656 0)"/>
       <use xlink:href="#DejaVuSans-30" transform="translate(179.345703 0)"/>
       <use xlink:href="#DejaVuSans-78" transform="translate(242.96875 0)"/>
      </g>
     </g>
    </g>
    <g id="ytick_10">
     <g id="line2d_16">
      <g>
       <use xlink:href="#mcc64ab2496" x="78.28" y="481.112185" style="stroke: #000000; stroke-width: 0.8"/>
      </g>
     </g>
     <g id="text_17">
      <!-- ppc64 -->
      <g transform="translate(40.359687 484.911404) scale(0.1 -0.1)">
       <use xlink:href="#DejaVuSans-70"/>
       <use xlink:href="#DejaVuSans-70" transform="translate(63.476562 0)"/>
       <use xlink:href="#DejaVuSans-63" transform="translate(126.953125 0)"/>
       <use xlink:href="#DejaVuSans-36" transform="translate(181.933594 0)"/>
       <use xlink:href="#DejaVuSans-34" transform="translate(245.556641 0)"/>
      </g>
     </g>
    </g>
    <g id="ytick_11">
     <g id="line2d_17">
      <g>
       <use xlink:href="#mcc64ab2496" x="78.28" y="448.766093" style="stroke: #000000; stroke-width: 0.8"/>
      </g>
     </g>
     <g id="text_18">
      <!-- sparc64 -->
      <g transform="translate(31.484687 452.565311) scale(0.1 -0.1)">
       <use xlink:href="#DejaVuSans-73"/>
       <use xlink:href="#DejaVuSans-70" transform="translate(52.099609 0)"/>
       <use xlink:href="#DejaVuSans-61" transform="translate(115.576172 0)"/>
       <use xlink:href="#DejaVuSans-72" transform="translate(176.855469 0)"/>
       <use xlink:href="#DejaVuSans-63" transform="translate(215.71875 0)"/>
       <use xlink:href="#DejaVuSans-36" transform="translate(270.699219 0)"/>
       <use xlink:href="#DejaVuSans-34" transform="translate(334.322266 0)"/>
      </g>
     </g>
    </g>
    <g id="ytick_12">
     <g id="line2d_18">
      <g>
       <use xlink:href="#mcc64ab2496" x="78.28" y="416.42" style="stroke: #000000; stroke-width: 0.8"/>
      </g>
     </g>
     <g id="text_19">
      <!-- mipsel -->
      <g transform="translate(38.272188 420.219219) scale(0.1 -0.1)">
       <use xlink:href="#DejaVuSans-6d"/>
       <use xlink:href="#DejaVuSans-69" transform="translate(97.412109 0)"/>
       <use xlink:href="#DejaVuSans-70" transform="translate(125.195312 0)"/>
       <use xlink:href="#DejaVuSans-73" transform="translate(188.671875 0)"/>
       <use xlink:href="#DejaVuSans-65" transform="translate(240.771484 0)"/>
       <use xlink:href="#DejaVuSans-6c" transform="translate(302.294922 0)"/>
      </g>
     </g>
    </g>
    <g id="ytick_13">
     <g id="line2d_19">
      <g>
       <use xlink:href="#mcc64ab2496" x="78.28" y="384.073907" style="stroke: #000000; stroke-width: 0.8"/>
      </g>
     </g>
     <g id="text_20">
      <!-- sparc -->
      <g transform="translate(44.209688 387.873126) scale(0.1 -0.1)">
       <use xlink:href="#DejaVuSans-73"/>
       <use xlink:href="#DejaVuSans-70" transform="translate(52.099609 0)"/>
       <use xlink:href="#DejaVuSans-61" transform="translate(115.576172 0)"/>
       <use xlink:href="#DejaVuSans-72" transform="translate(176.855469 0)"/>
       <use xlink:href="#DejaVuSans-63" transform="translate(215.71875 0)"/>
      </g>
     </g>
    </g>
    <g id="ytick_14">
     <g id="line2d_20">
      <g>
       <use xlink:href="#mcc64ab2496" x="78.28" y="351.727815" style="stroke: #000000; stroke-width: 0.8"/>
      </g>
     </g>
     <g id="text_21">
      <!-- ppc64el -->
      <g transform="translate(31.428438 355.527034) scale(0.1 -0.1)">
       <use xlink:href="#DejaVuSans-70"/>
       <use xlink:href="#DejaVuSans-70" transform="translate(63.476562 0)"/>
       <use xlink:href="#DejaVuSans-63" transform="translate(126.953125 0)"/>
       <use xlink:href="#DejaVuSans-36" transform="translate(181.933594 0)"/>
       <use xlink:href="#DejaVuSans-34" transform="translate(245.556641 0)"/>
       <use xlink:href="#DejaVuSans-65" transform="translate(309.179688 0)"/>
       <use xlink:href="#DejaVuSans-6c" transform="translate(370.703125 0)"/>
      </g>
     </g>
    </g>
    <g id="ytick_15">
     <g id="line2d_21">
      <g>
       <use xlink:href="#mcc64ab2496" x="78.28" y="319.381722" style="stroke: #000000; stroke-width: 0.8"/>
      </g>
     </g>
     <g id="text_22">
      <!-- armhf -->
      <g transform="translate(41.6175 323.180941) scale(0.1 -0.1)">
       <defs>
        <path id="DejaVuSans-66" d="M 2375 4863 
L 2375 4384 
L 1825 4384 
Q 1516 4384 1395 4259 
Q 1275 4134 1275 3809 
L 1275 3500 
L 2222 3500 
L 2222 3053 
L 1275 3053 
L 1275 0 
L 697 0 
L 697 3053 
L 147 3053 
L 147 3500 
L 697 3500 
L 697 3744 
Q 697 4328 969 4595 
Q 1241 4863 1831 4863 
L 2375 4863 
z
" transform="scale(0.015625)"/>
       </defs>
       <use xlink:href="#DejaVuSans-61"/>
       <use xlink:href="#DejaVuSans-72" transform="translate(61.279297 0)"/>
       <use xlink:href="#DejaVuSans-6d" transform="translate(100.642578 0)"/>
       <use xlink:href="#DejaVuSans-68" transform="translate(198.054688 0)"/>
       <use xlink:href="#DejaVuSans-66" transform="translate(261.433594 0)"/>
      </g>
     </g>
    </g>
    <g id="ytick_16">
     <g id="line2d_22">
      <g>
       <use xlink:href="#mcc64ab2496" x="78.28" y="287.03563" style="stroke: #000000; stroke-width: 0.8"/>
      </g>
     </g>
     <g id="text_23">
      <!-- amd64 -->
      <g transform="translate(36.337812 290.834849) scale(0.1 -0.1)">
       <use xlink:href="#DejaVuSans-61"/>
       <use xlink:href="#DejaVuSans-6d" transform="translate(61.279297 0)"/>
       <use xlink:href="#DejaVuSans-64" transform="translate(158.691406 0)"/>
       <use xlink:href="#DejaVuSans-36" transform="translate(222.167969 0)"/>
       <use xlink:href="#DejaVuSans-34" transform="translate(285.791016 0)"/>
      </g>
     </g>
    </g>
    <g id="ytick_17">
     <g id="line2d_23">
      <g>
       <use xlink:href="#mcc64ab2496" x="78.28" y="254.689537" style="stroke: #000000; stroke-width: 0.8"/>
      </g>
     </g>
     <g id="text_24">
      <!-- alpha -->
      <g transform="translate(43.559687 258.488756) scale(0.1 -0.1)">
       <use xlink:href="#DejaVuSans-61"/>
       <use xlink:href="#DejaVuSans-6c" transform="translate(61.279297 0)"/>
       <use xlink:href="#DejaVuSans-70" transform="translate(89.0625 0)"/>
       <use xlink:href="#DejaVuSans-68" transform="translate(152.539062 0)"/>
       <use xlink:href="#DejaVuSans-61" transform="translate(215.917969 0)"/>
      </g>
     </g>
    </g>
    <g id="ytick_18">
     <g id="line2d_24">
      <g>
       <use xlink:href="#mcc64ab2496" x="78.28" y="222.343445" style="stroke: #000000; stroke-width: 0.8"/>
      </g>
     </g>
     <g id="text_25">
      <!-- i386 -->
      <g transform="translate(49.414375 226.142664) scale(0.1 -0.1)">
       <use xlink:href="#DejaVuSans-69"/>
       <use xlink:href="#DejaVuSans-33" transform="translate(27.783203 0)"/>
       <use xlink:href="#DejaVuSans-38" transform="translate(91.40625 0)"/>
       <use xlink:href="#DejaVuSans-36" transform="translate(155.029297 0)"/>
      </g>
     </g>
    </g>
    <g id="ytick_19">
     <g id="line2d_25">
      <g>
       <use xlink:href="#mcc64ab2496" x="78.28" y="189.997352" style="stroke: #000000; stroke-width: 0.8"/>
      </g>
     </g>
     <g id="text_26">
      <!-- mips64el -->
      <g transform="translate(25.547187 193.796571) scale(0.1 -0.1)">
       <use xlink:href="#DejaVuSans-6d"/>
       <use xlink:href="#DejaVuSans-69" transform="translate(97.412109 0)"/>
       <use xlink:href="#DejaVuSans-70" transform="translate(125.195312 0)"/>
       <use xlink:href="#DejaVuSans-73" transform="translate(188.671875 0)"/>
       <use xlink:href="#DejaVuSans-36" transform="translate(240.771484 0)"/>
       <use xlink:href="#DejaVuSans-34" transform="translate(304.394531 0)"/>
       <use xlink:href="#DejaVuSans-65" transform="translate(368.017578 0)"/>
       <use xlink:href="#DejaVuSans-6c" transform="translate(429.541016 0)"/>
      </g>
     </g>
    </g>
    <g id="ytick_20">
     <g id="line2d_26">
      <g>
       <use xlink:href="#mcc64ab2496" x="78.28" y="157.65126" style="stroke: #000000; stroke-width: 0.8"/>
      </g>
     </g>
     <g id="text_27">
      <!-- powerpcspe -->
      <g transform="translate(10.812812 161.450479) scale(0.1 -0.1)">
       <defs>
        <path id="DejaVuSans-77" d="M 269 3500 
L 844 3500 
L 1563 769 
L 2278 3500 
L 2956 3500 
L 3675 769 
L 4391 3500 
L 4966 3500 
L 4050 0 
L 3372 0 
L 2619 2869 
L 1863 0 
L 1184 0 
L 269 3500 
z
" transform="scale(0.015625)"/>
       </defs>
       <use xlink:href="#DejaVuSans-70"/>
       <use xlink:href="#DejaVuSans-6f" transform="translate(63.476562 0)"/>
       <use xlink:href="#DejaVuSans-77" transform="translate(124.658203 0)"/>
       <use xlink:href="#DejaVuSans-65" transform="translate(206.445312 0)"/>
       <use xlink:href="#DejaVuSans-72" transform="translate(267.96875 0)"/>
       <use xlink:href="#DejaVuSans-70" transform="translate(309.082031 0)"/>
       <use xlink:href="#DejaVuSans-63" transform="translate(372.558594 0)"/>
       <use xlink:href="#DejaVuSans-73" transform="translate(427.539062 0)"/>
       <use xlink:href="#DejaVuSans-70" transform="translate(479.638672 0)"/>
       <use xlink:href="#DejaVuSans-65" transform="translate(543.115234 0)"/>
      </g>
     </g>
    </g>
    <g id="ytick_21">
     <g id="line2d_27">
      <g>
       <use xlink:href="#mcc64ab2496" x="78.28" y="125.305167" style="stroke: #000000; stroke-width: 0.8"/>
      </g>
     </g>
     <g id="text_28">
      <!-- x32 -->
      <g transform="translate(52.63625 129.104386) scale(0.1 -0.1)">
       <use xlink:href="#DejaVuSans-78"/>
       <use xlink:href="#DejaVuSans-33" transform="translate(59.179688 0)"/>
       <use xlink:href="#DejaVuSans-32" transform="translate(122.802734 0)"/>
      </g>
     </g>
    </g>
    <g id="ytick_22">
     <g id="line2d_28">
      <g>
       <use xlink:href="#mcc64ab2496" x="78.28" y="92.959075" style="stroke: #000000; stroke-width: 0.8"/>
      </g>
     </g>
     <g id="text_29">
      <!-- armel -->
      <g transform="translate(42.544062 96.758294) scale(0.1 -0.1)">
       <use xlink:href="#DejaVuSans-61"/>
       <use xlink:href="#DejaVuSans-72" transform="translate(61.279297 0)"/>
       <use xlink:href="#DejaVuSans-6d" transform="translate(100.642578 0)"/>
       <use xlink:href="#DejaVuSans-65" transform="translate(198.054688 0)"/>
       <use xlink:href="#DejaVuSans-6c" transform="translate(259.578125 0)"/>
      </g>
     </g>
    </g>
    <g id="ytick_23">
     <g id="line2d_29">
      <g>
       <use xlink:href="#mcc64ab2496" x="78.28" y="60.612982" style="stroke: #000000; stroke-width: 0.8"/>
      </g>
     </g>
     <g id="text_30">
      <!-- powerpc -->
      <g transform="translate(28.52375 64.412201) scale(0.1 -0.1)">
       <use xlink:href="#DejaVuSans-70"/>
       <use xlink:href="#DejaVuSans-6f" transform="translate(63.476562 0)"/>
       <use xlink:href="#DejaVuSans-77" transform="translate(124.658203 0)"/>
       <use xlink:href="#DejaVuSans-65" transform="translate(206.445312 0)"/>
       <use xlink:href="#DejaVuSans-72" transform="translate(267.96875 0)"/>
       <use xlink:href="#DejaVuSans-70" transform="translate(309.082031 0)"/>
       <use xlink:href="#DejaVuSans-63" transform="translate(372.558594 0)"/>
      </g>
     </g>
    </g>
   </g>
   <g id="LineCollection_1">
    <path d="M 76.747182 772.227018 
L 112.209113 772.227018 
" clip-path="url(#pe60ffa8c9d)" style="fill: none; stroke: #000000; stroke-width: 1.5"/>
    <path d="M 204.460947 739.880925 
L 433.157418 739.880925 
" clip-path="url(#pe60ffa8c9d)" style="fill: none; stroke: #000000; stroke-width: 1.5"/>
    <path d="M 209.400913 707.534833 
L 472.680128 707.534833 
" clip-path="url(#pe60ffa8c9d)" style="fill: none; stroke: #000000; stroke-width: 1.5"/>
    <path d="M 121.468771 675.18874 
L 583.52331 675.18874 
" clip-path="url(#pe60ffa8c9d)" style="fill: none; stroke: #000000; stroke-width: 1.5"/>
    <path d="M 250.532148 642.842648 
L 456.316351 642.842648 
" clip-path="url(#pe60ffa8c9d)" style="fill: none; stroke: #000000; stroke-width: 1.5"/>
    <path d="M 281.826893 610.496555 
L 465.017366 610.496555 
" clip-path="url(#pe60ffa8c9d)" style="fill: none; stroke: #000000; stroke-width: 1.5"/>
    <path d="M 208.802952 578.150463 
L 542.998105 578.150463 
" clip-path="url(#pe60ffa8c9d)" style="fill: none; stroke: #000000; stroke-width: 1.5"/>
    <path d="M 229.660783 545.80437 
L 566.595019 545.80437 
" clip-path="url(#pe60ffa8c9d)" style="fill: none; stroke: #000000; stroke-width: 1.5"/>
    <path d="M 209.259629 513.458278 
L 597.614305 513.458278 
" clip-path="url(#pe60ffa8c9d)" style="fill: none; stroke: #000000; stroke-width: 1.5"/>
    <path d="M 383.765197 481.112185 
L 581.608864 481.112185 
" clip-path="url(#pe60ffa8c9d)" style="fill: none; stroke: #000000; stroke-width: 1.5"/>
    <path d="M 382.172686 448.766093 
L 638.882094 448.766093 
" clip-path="url(#pe60ffa8c9d)" style="fill: none; stroke: #000000; stroke-width: 1.5"/>
    <path d="M 379.532821 416.42 
L 649 416.42 
" clip-path="url(#pe60ffa8c9d)" style="fill: none; stroke: #000000; stroke-width: 1.5"/>
    <path d="M 484.197618 384.073907 
L 639.035454 384.073907 
" clip-path="url(#pe60ffa8c9d)" style="fill: none; stroke: #000000; stroke-width: 1.5"/>
    <path d="M 577.419226 351.727815 
L 647.274789 351.727815 
" clip-path="url(#pe60ffa8c9d)" style="fill: none; stroke: #000000; stroke-width: 1.5"/>
    <path d="M 604.104992 319.381722 
L 621.620281 319.381722 
" clip-path="url(#pe60ffa8c9d)" style="fill: none; stroke: #000000; stroke-width: 1.5"/>
    <path d="M 604.343256 287.03563 
L 625.863255 287.03563 
" clip-path="url(#pe60ffa8c9d)" style="fill: none; stroke: #000000; stroke-width: 1.5"/>
    <path d="M 603.043217 254.689537 
L 628.339112 254.689537 
" clip-path="url(#pe60ffa8c9d)" style="fill: none; stroke: #000000; stroke-width: 1.5"/>
    <path d="M 614.163891 222.343445 
L 627.29487 222.343445 
" clip-path="url(#pe60ffa8c9d)" style="fill: none; stroke: #000000; stroke-width: 1.5"/>
    <path d="M 608.824653 189.997352 
L 633.839151 189.997352 
" clip-path="url(#pe60ffa8c9d)" style="fill: none; stroke: #000000; stroke-width: 1.5"/>
    <path d="M 619.025593 157.65126 
L 630.042722 157.65126 
" clip-path="url(#pe60ffa8c9d)" style="fill: none; stroke: #000000; stroke-width: 1.5"/>
    <path d="M 619.633561 125.305167 
L 629.452828 125.305167 
" clip-path="url(#pe60ffa8c9d)" style="fill: none; stroke: #000000; stroke-width: 1.5"/>
    <path d="M 622.594194 92.959075 
L 629.620122 92.959075 
" clip-path="url(#pe60ffa8c9d)" style="fill: none; stroke: #000000; stroke-width: 1.5"/>
    <path d="M 628.108635 60.612982 
L 629.33854 60.612982 
" clip-path="url(#pe60ffa8c9d)" style="fill: none; stroke: #000000; stroke-width: 1.5"/>
   </g>
   <g id="line2d_30">
    <defs>
     <path id="m52c53f6b2f" d="M 0 5 
L 0 -5 
" style="stroke: #000000"/>
    </defs>
    <g clip-path="url(#pe60ffa8c9d)">
     <use xlink:href="#m52c53f6b2f" x="76.747182" y="772.227018" style="stroke: #000000"/>
     <use xlink:href="#m52c53f6b2f" x="204.460947" y="739.880925" style="stroke: #000000"/>
     <use xlink:href="#m52c53f6b2f" x="209.400913" y="707.534833" style="stroke: #000000"/>
     <use xlink:href="#m52c53f6b2f" x="121.468771" y="675.18874" style="stroke: #000000"/>
     <use xlink:href="#m52c53f6b2f" x="250.532148" y="642.842648" style="stroke: #000000"/>
     <use xlink:href="#m52c53f6b2f" x="281.826893" y="610.496555" style="stroke: #000000"/>
     <use xlink:href="#m52c53f6b2f" x="208.802952" y="578.150463" style="stroke: #000000"/>
     <use xlink:href="#m52c53f6b2f" x="229.660783" y="545.80437" style="stroke: #000000"/>
     <use xlink:href="#m52c53f6b2f" x="209.259629" y="513.458278" style="stroke: #000000"/>
     <use xlink:href="#m52c53f6b2f" x="383.765197" y="481.112185" style="stroke: #000000"/>
     <use xlink:href="#m52c53f6b2f" x="382.172686" y="448.766093" style="stroke: #000000"/>
     <use xlink:href="#m52c53f6b2f" x="379.532821" y="416.42" style="stroke: #000000"/>
     <use xlink:href="#m52c53f6b2f" x="484.197618" y="384.073907" style="stroke: #000000"/>
     <use xlink:href="#m52c53f6b2f" x="577.419226" y="351.727815" style="stroke: #000000"/>
     <use xlink:href="#m52c53f6b2f" x="604.104992" y="319.381722" style="stroke: #000000"/>
     <use xlink:href="#m52c53f6b2f" x="604.343256" y="287.03563" style="stroke: #000000"/>
     <use xlink:href="#m52c53f6b2f" x="603.043217" y="254.689537" style="stroke: #000000"/>
     <use xlink:href="#m52c53f6b2f" x="614.163891" y="222.343445" style="stroke: #000000"/>
     <use xlink:href="#m52c53f6b2f" x="608.824653" y="189.997352" style="stroke: #000000"/>
     <use xlink:href="#m52c53f6b2f" x="619.025593" y="157.65126" style="stroke: #000000"/>
     <use xlink:href="#m52c53f6b2f" x="619.633561" y="125.305167" style="stroke: #000000"/>
     <use xlink:href="#m52c53f6b2f" x="622.594194" y="92.959075" style="stroke: #000000"/>
     <use xlink:href="#m52c53f6b2f" x="628.108635" y="60.612982" style="stroke: #000000"/>
    </g>
   </g>
   <g id="line2d_31">
    <g clip-path="url(#pe60ffa8c9d)">
     <use xlink:href="#m52c53f6b2f" x="112.209113" y="772.227018" style="stroke: #000000"/>
     <use xlink:href="#m52c53f6b2f" x="433.157418" y="739.880925" style="stroke: #000000"/>
     <use xlink:href="#m52c53f6b2f" x="472.680128" y="707.534833" style="stroke: #000000"/>
     <use xlink:href="#m52c53f6b2f" x="583.52331" y="675.18874" style="stroke: #000000"/>
     <use xlink:href="#m52c53f6b2f" x="456.316351" y="642.842648" style="stroke: #000000"/>
     <use xlink:href="#m52c53f6b2f" x="465.017366" y="610.496555" style="stroke: #000000"/>
     <use xlink:href="#m52c53f6b2f" x="542.998105" y="578.150463" style="stroke: #000000"/>
     <use xlink:href="#m52c53f6b2f" x="566.595019" y="545.80437" style="stroke: #000000"/>
     <use xlink:href="#m52c53f6b2f" x="597.614305" y="513.458278" style="stroke: #000000"/>
     <use xlink:href="#m52c53f6b2f" x="581.608864" y="481.112185" style="stroke: #000000"/>
     <use xlink:href="#m52c53f6b2f" x="638.882094" y="448.766093" style="stroke: #000000"/>
     <use xlink:href="#m52c53f6b2f" x="671.145704" y="416.42" style="stroke: #000000"/>
     <use xlink:href="#m52c53f6b2f" x="639.035454" y="384.073907" style="stroke: #000000"/>
     <use xlink:href="#m52c53f6b2f" x="647.274789" y="351.727815" style="stroke: #000000"/>
     <use xlink:href="#m52c53f6b2f" x="621.620281" y="319.381722" style="stroke: #000000"/>
     <use xlink:href="#m52c53f6b2f" x="625.863255" y="287.03563" style="stroke: #000000"/>
     <use xlink:href="#m52c53f6b2f" x="628.339112" y="254.689537" style="stroke: #000000"/>
     <use xlink:href="#m52c53f6b2f" x="627.29487" y="222.343445" style="stroke: #000000"/>
     <use xlink:href="#m52c53f6b2f" x="633.839151" y="189.997352" style="stroke: #000000"/>
     <use xlink:href="#m52c53f6b2f" x="630.042722" y="157.65126" style="stroke: #000000"/>
     <use xlink:href="#m52c53f6b2f" x="629.452828" y="125.305167" style="stroke: #000000"/>
     <use xlink:href="#m52c53f6b2f" x="629.620122" y="92.959075" style="stroke: #000000"/>
     <use xlink:href="#m52c53f6b2f" x="629.33854" y="60.612982" style="stroke: #000000"/>
    </g>
   </g>
   <g id="patch_26">
    <path d="M 78.28 822.04 
L 78.28 10.8 
" style="fill: none; stroke: #000000; stroke-width: 0.8; stroke-linejoin: miter; stroke-linecap: square"/>
   </g>
   <g id="patch_27">
    <path d="M 629.28 822.04 
L 629.28 10.8 
" style="fill: none; stroke: #000000; stroke-width: 0.8; stroke-linejoin: miter; stroke-linecap: square"/>
   </g>
   <g id="patch_28">
    <path d="M 78.28 822.04 
L 629.28 822.04 
" style="fill: none; stroke: #000000; stroke-width: 0.8; stroke-linejoin: miter; stroke-linecap: square"/>
   </g>
   <g id="patch_29">
    <path d="M 78.28 10.8 
L 629.28 10.8 
" style="fill: none; stroke: #000000; stroke-width: 0.8; stroke-linejoin: miter; stroke-linecap: square"/>
   </g>
  </g>
 </g>
 <defs>
  <clipPath id="pe60ffa8c9d">
   <rect x="78.28" y="10.8" width="551" height="811.24"/>
  </clipPath>
 </defs>
</svg>
