<?xml version="1.0" encoding="utf-8" standalone="no"?>
<!DOCTYPE svg PUBLIC "-//W3C//DTD SVG 1.1//EN"
  "http://www.w3.org/Graphics/SVG/1.1/DTD/svg11.dtd">
<svg xmlns:xlink="http://www.w3.org/1999/xlink" width="553.18125pt" height="420.251346pt" viewBox="0 0 553.18125 420.251346" xmlns="http://www.w3.org/2000/svg" version="1.1">
 <metadata>
  <rdf:RDF xmlns:dc="http://purl.org/dc/elements/1.1/" xmlns:cc="http://creativecommons.org/ns#" xmlns:rdf="http://www.w3.org/1999/02/22-rdf-syntax-ns#">
   <cc:Work>
    <dc:type rdf:resource="http://purl.org/dc/dcmitype/StillImage"/>
    <dc:date>2025-05-15T14:17:16.613339</dc:date>
    <dc:format>image/svg+xml</dc:format>
    <dc:creator>
     <cc:Agent>
      <dc:title>Matplotlib v3.10.1, https://matplotlib.org/</dc:title>
     </cc:Agent>
    </dc:creator>
   </cc:Work>
  </rdf:RDF>
 </metadata>
 <defs>
  <style type="text/css">*{stroke-linejoin: round; stroke-linecap: butt}</style>
 </defs>
 <g id="figure_1">
  <g id="patch_1">
   <path d="M 0 420.251346 
L 553.18125 420.251346 
L 553.18125 0 
L 0 0 
z
" style="fill: #ffffff"/>
  </g>
  <g id="axes_1">
   <g id="patch_2">
    <path d="M 43.78125 354.958125 
L 545.98125 354.958125 
L 545.98125 22.318125 
L 43.78125 22.318125 
z
" style="fill: #ffffff"/>
   </g>
   <g id="matplotlib.axis_1">
    <g id="xtick_1">
     <g id="line2d_1">
      <defs>
       <path id="m93024683ee" d="M 0 0 
L 0 3.5 
" style="stroke: #000000; stroke-width: 0.8"/>
      </defs>
      <g>
       <use xlink:href="#m93024683ee" x="81.285494" y="354.958125" style="stroke: #000000; stroke-width: 0.8"/>
      </g>
     </g>
     <g id="text_1">
      <!-- Simple1d -->
      <g transform="translate(62.375153 391.967471) rotate(-30) scale(0.1 -0.1)">
       <defs>
        <path id="DejaVuSans-53" d="M 3425 4513 
L 3425 3897 
Q 3066 4069 2747 4153 
Q 2428 4238 2131 4238 
Q 1616 4238 1336 4038 
Q 1056 3838 1056 3469 
Q 1056 3159 1242 3001 
Q 1428 2844 1947 2747 
L 2328 2669 
Q 3034 2534 3370 2195 
Q 3706 1856 3706 1288 
Q 3706 609 3251 259 
Q 2797 -91 1919 -91 
Q 1588 -91 1214 -16 
Q 841 59 441 206 
L 441 856 
Q 825 641 1194 531 
Q 1563 422 1919 422 
Q 2459 422 2753 634 
Q 3047 847 3047 1241 
Q 3047 1584 2836 1778 
Q 2625 1972 2144 2069 
L 1759 2144 
Q 1053 2284 737 2584 
Q 422 2884 422 3419 
Q 422 4038 858 4394 
Q 1294 4750 2059 4750 
Q 2388 4750 2728 4690 
Q 3069 4631 3425 4513 
z
" transform="scale(0.015625)"/>
        <path id="DejaVuSans-69" d="M 603 3500 
L 1178 3500 
L 1178 0 
L 603 0 
L 603 3500 
z
M 603 4863 
L 1178 4863 
L 1178 4134 
L 603 4134 
L 603 4863 
z
" transform="scale(0.015625)"/>
        <path id="DejaVuSans-6d" d="M 3328 2828 
Q 3544 3216 3844 3400 
Q 4144 3584 4550 3584 
Q 5097 3584 5394 3201 
Q 5691 2819 5691 2113 
L 5691 0 
L 5113 0 
L 5113 2094 
Q 5113 2597 4934 2840 
Q 4756 3084 4391 3084 
Q 3944 3084 3684 2787 
Q 3425 2491 3425 1978 
L 3425 0 
L 2847 0 
L 2847 2094 
Q 2847 2600 2669 2842 
Q 2491 3084 2119 3084 
Q 1678 3084 1418 2786 
Q 1159 2488 1159 1978 
L 1159 0 
L 581 0 
L 581 3500 
L 1159 3500 
L 1159 2956 
Q 1356 3278 1631 3431 
Q 1906 3584 2284 3584 
Q 2666 3584 2933 3390 
Q 3200 3197 3328 2828 
z
" transform="scale(0.015625)"/>
        <path id="DejaVuSans-70" d="M 1159 525 
L 1159 -1331 
L 581 -1331 
L 581 3500 
L 1159 3500 
L 1159 2969 
Q 1341 3281 1617 3432 
Q 1894 3584 2278 3584 
Q 2916 3584 3314 3078 
Q 3713 2572 3713 1747 
Q 3713 922 3314 415 
Q 2916 -91 2278 -91 
Q 1894 -91 1617 61 
Q 1341 213 1159 525 
z
M 3116 1747 
Q 3116 2381 2855 2742 
Q 2594 3103 2138 3103 
Q 1681 3103 1420 2742 
Q 1159 2381 1159 1747 
Q 1159 1113 1420 752 
Q 1681 391 2138 391 
Q 2594 391 2855 752 
Q 3116 1113 3116 1747 
z
" transform="scale(0.015625)"/>
        <path id="DejaVuSans-6c" d="M 603 4863 
L 1178 4863 
L 1178 0 
L 603 0 
L 603 4863 
z
" transform="scale(0.015625)"/>
        <path id="DejaVuSans-65" d="M 3597 1894 
L 3597 1613 
L 953 1613 
Q 991 1019 1311 708 
Q 1631 397 2203 397 
Q 2534 397 2845 478 
Q 3156 559 3463 722 
L 3463 178 
Q 3153 47 2828 -22 
Q 2503 -91 2169 -91 
Q 1331 -91 842 396 
Q 353 884 353 1716 
Q 353 2575 817 3079 
Q 1281 3584 2069 3584 
Q 2775 3584 3186 3129 
Q 3597 2675 3597 1894 
z
M 3022 2063 
Q 3016 2534 2758 2815 
Q 2500 3097 2075 3097 
Q 1594 3097 1305 2825 
Q 1016 2553 972 2059 
L 3022 2063 
z
" transform="scale(0.015625)"/>
        <path id="DejaVuSans-31" d="M 794 531 
L 1825 531 
L 1825 4091 
L 703 3866 
L 703 4441 
L 1819 4666 
L 2450 4666 
L 2450 531 
L 3481 531 
L 3481 0 
L 794 0 
L 794 531 
z
" transform="scale(0.015625)"/>
        <path id="DejaVuSans-64" d="M 2906 2969 
L 2906 4863 
L 3481 4863 
L 3481 0 
L 2906 0 
L 2906 525 
Q 2725 213 2448 61 
Q 2172 -91 1784 -91 
Q 1150 -91 751 415 
Q 353 922 353 1747 
Q 353 2572 751 3078 
Q 1150 3584 1784 3584 
Q 2172 3584 2448 3432 
Q 2725 3281 2906 2969 
z
M 947 1747 
Q 947 1113 1208 752 
Q 1469 391 1925 391 
Q 2381 391 2643 752 
Q 2906 1113 2906 1747 
Q 2906 2381 2643 2742 
Q 2381 3103 1925 3103 
Q 1469 3103 1208 2742 
Q 947 2381 947 1747 
z
" transform="scale(0.015625)"/>
       </defs>
       <use xlink:href="#DejaVuSans-53"/>
       <use xlink:href="#DejaVuSans-69" transform="translate(63.476562 0)"/>
       <use xlink:href="#DejaVuSans-6d" transform="translate(91.259766 0)"/>
       <use xlink:href="#DejaVuSans-70" transform="translate(188.671875 0)"/>
       <use xlink:href="#DejaVuSans-6c" transform="translate(252.148438 0)"/>
       <use xlink:href="#DejaVuSans-65" transform="translate(279.931641 0)"/>
       <use xlink:href="#DejaVuSans-31" transform="translate(341.455078 0)"/>
       <use xlink:href="#DejaVuSans-64" transform="translate(405.078125 0)"/>
      </g>
     </g>
    </g>
    <g id="xtick_2">
     <g id="line2d_2">
      <g>
       <use xlink:href="#m93024683ee" x="164.656906" y="354.958125" style="stroke: #000000; stroke-width: 0.8"/>
      </g>
     </g>
     <g id="text_2">
      <!-- Simple1d-E -->
      <g transform="translate(141.448238 396.930752) rotate(-30) scale(0.1 -0.1)">
       <defs>
        <path id="DejaVuSans-2d" d="M 313 2009 
L 1997 2009 
L 1997 1497 
L 313 1497 
L 313 2009 
z
" transform="scale(0.015625)"/>
        <path id="DejaVuSans-45" d="M 628 4666 
L 3578 4666 
L 3578 4134 
L 1259 4134 
L 1259 2753 
L 3481 2753 
L 3481 2222 
L 1259 2222 
L 1259 531 
L 3634 531 
L 3634 0 
L 628 0 
L 628 4666 
z
" transform="scale(0.015625)"/>
       </defs>
       <use xlink:href="#DejaVuSans-53"/>
       <use xlink:href="#DejaVuSans-69" transform="translate(63.476562 0)"/>
       <use xlink:href="#DejaVuSans-6d" transform="translate(91.259766 0)"/>
       <use xlink:href="#DejaVuSans-70" transform="translate(188.671875 0)"/>
       <use xlink:href="#DejaVuSans-6c" transform="translate(252.148438 0)"/>
       <use xlink:href="#DejaVuSans-65" transform="translate(279.931641 0)"/>
       <use xlink:href="#DejaVuSans-31" transform="translate(341.455078 0)"/>
       <use xlink:href="#DejaVuSans-64" transform="translate(405.078125 0)"/>
       <use xlink:href="#DejaVuSans-2d" transform="translate(468.554688 0)"/>
       <use xlink:href="#DejaVuSans-45" transform="translate(504.638672 0)"/>
      </g>
     </g>
    </g>
    <g id="xtick_3">
     <g id="line2d_3">
      <g>
       <use xlink:href="#m93024683ee" x="248.028318" y="354.958125" style="stroke: #000000; stroke-width: 0.8"/>
      </g>
     </g>
     <g id="text_3">
      <!-- Simple2d -->
      <g transform="translate(229.117977 391.967471) rotate(-30) scale(0.1 -0.1)">
       <defs>
        <path id="DejaVuSans-32" d="M 1228 531 
L 3431 531 
L 3431 0 
L 469 0 
L 469 531 
Q 828 903 1448 1529 
Q 2069 2156 2228 2338 
Q 2531 2678 2651 2914 
Q 2772 3150 2772 3378 
Q 2772 3750 2511 3984 
Q 2250 4219 1831 4219 
Q 1534 4219 1204 4116 
Q 875 4013 500 3803 
L 500 4441 
Q 881 4594 1212 4672 
Q 1544 4750 1819 4750 
Q 2544 4750 2975 4387 
Q 3406 4025 3406 3419 
Q 3406 3131 3298 2873 
Q 3191 2616 2906 2266 
Q 2828 2175 2409 1742 
Q 1991 1309 1228 531 
z
" transform="scale(0.015625)"/>
       </defs>
       <use xlink:href="#DejaVuSans-53"/>
       <use xlink:href="#DejaVuSans-69" transform="translate(63.476562 0)"/>
       <use xlink:href="#DejaVuSans-6d" transform="translate(91.259766 0)"/>
       <use xlink:href="#DejaVuSans-70" transform="translate(188.671875 0)"/>
       <use xlink:href="#DejaVuSans-6c" transform="translate(252.148438 0)"/>
       <use xlink:href="#DejaVuSans-65" transform="translate(279.931641 0)"/>
       <use xlink:href="#DejaVuSans-32" transform="translate(341.455078 0)"/>
       <use xlink:href="#DejaVuSans-64" transform="translate(405.078125 0)"/>
      </g>
     </g>
    </g>
    <g id="xtick_4">
     <g id="line2d_4">
      <g>
       <use xlink:href="#m93024683ee" x="331.39973" y="354.958125" style="stroke: #000000; stroke-width: 0.8"/>
      </g>
     </g>
     <g id="text_4">
      <!-- Simple2d-E -->
      <g transform="translate(308.191062 396.930752) rotate(-30) scale(0.1 -0.1)">
       <use xlink:href="#DejaVuSans-53"/>
       <use xlink:href="#DejaVuSans-69" transform="translate(63.476562 0)"/>
       <use xlink:href="#DejaVuSans-6d" transform="translate(91.259766 0)"/>
       <use xlink:href="#DejaVuSans-70" transform="translate(188.671875 0)"/>
       <use xlink:href="#DejaVuSans-6c" transform="translate(252.148438 0)"/>
       <use xlink:href="#DejaVuSans-65" transform="translate(279.931641 0)"/>
       <use xlink:href="#DejaVuSans-32" transform="translate(341.455078 0)"/>
       <use xlink:href="#DejaVuSans-64" transform="translate(405.078125 0)"/>
       <use xlink:href="#DejaVuSans-2d" transform="translate(468.554688 0)"/>
       <use xlink:href="#DejaVuSans-45" transform="translate(504.638672 0)"/>
      </g>
     </g>
    </g>
    <g id="xtick_5">
     <g id="line2d_5">
      <g>
       <use xlink:href="#m93024683ee" x="414.771142" y="354.958125" style="stroke: #000000; stroke-width: 0.8"/>
      </g>
     </g>
     <g id="text_5">
      <!-- ResNet50 -->
      <g transform="translate(395.305327 392.608877) rotate(-30) scale(0.1 -0.1)">
       <defs>
        <path id="DejaVuSans-52" d="M 2841 2188 
Q 3044 2119 3236 1894 
Q 3428 1669 3622 1275 
L 4263 0 
L 3584 0 
L 2988 1197 
Q 2756 1666 2539 1819 
Q 2322 1972 1947 1972 
L 1259 1972 
L 1259 0 
L 628 0 
L 628 4666 
L 2053 4666 
Q 2853 4666 3247 4331 
Q 3641 3997 3641 3322 
Q 3641 2881 3436 2590 
Q 3231 2300 2841 2188 
z
M 1259 4147 
L 1259 2491 
L 2053 2491 
Q 2509 2491 2742 2702 
Q 2975 2913 2975 3322 
Q 2975 3731 2742 3939 
Q 2509 4147 2053 4147 
L 1259 4147 
z
" transform="scale(0.015625)"/>
        <path id="DejaVuSans-73" d="M 2834 3397 
L 2834 2853 
Q 2591 2978 2328 3040 
Q 2066 3103 1784 3103 
Q 1356 3103 1142 2972 
Q 928 2841 928 2578 
Q 928 2378 1081 2264 
Q 1234 2150 1697 2047 
L 1894 2003 
Q 2506 1872 2764 1633 
Q 3022 1394 3022 966 
Q 3022 478 2636 193 
Q 2250 -91 1575 -91 
Q 1294 -91 989 -36 
Q 684 19 347 128 
L 347 722 
Q 666 556 975 473 
Q 1284 391 1588 391 
Q 1994 391 2212 530 
Q 2431 669 2431 922 
Q 2431 1156 2273 1281 
Q 2116 1406 1581 1522 
L 1381 1569 
Q 847 1681 609 1914 
Q 372 2147 372 2553 
Q 372 3047 722 3315 
Q 1072 3584 1716 3584 
Q 2034 3584 2315 3537 
Q 2597 3491 2834 3397 
z
" transform="scale(0.015625)"/>
        <path id="DejaVuSans-4e" d="M 628 4666 
L 1478 4666 
L 3547 763 
L 3547 4666 
L 4159 4666 
L 4159 0 
L 3309 0 
L 1241 3903 
L 1241 0 
L 628 0 
L 628 4666 
z
" transform="scale(0.015625)"/>
        <path id="DejaVuSans-74" d="M 1172 4494 
L 1172 3500 
L 2356 3500 
L 2356 3053 
L 1172 3053 
L 1172 1153 
Q 1172 725 1289 603 
Q 1406 481 1766 481 
L 2356 481 
L 2356 0 
L 1766 0 
Q 1100 0 847 248 
Q 594 497 594 1153 
L 594 3053 
L 172 3053 
L 172 3500 
L 594 3500 
L 594 4494 
L 1172 4494 
z
" transform="scale(0.015625)"/>
        <path id="DejaVuSans-35" d="M 691 4666 
L 3169 4666 
L 3169 4134 
L 1269 4134 
L 1269 2991 
Q 1406 3038 1543 3061 
Q 1681 3084 1819 3084 
Q 2600 3084 3056 2656 
Q 3513 2228 3513 1497 
Q 3513 744 3044 326 
Q 2575 -91 1722 -91 
Q 1428 -91 1123 -41 
Q 819 9 494 109 
L 494 744 
Q 775 591 1075 516 
Q 1375 441 1709 441 
Q 2250 441 2565 725 
Q 2881 1009 2881 1497 
Q 2881 1984 2565 2268 
Q 2250 2553 1709 2553 
Q 1456 2553 1204 2497 
Q 953 2441 691 2322 
L 691 4666 
z
" transform="scale(0.015625)"/>
        <path id="DejaVuSans-30" d="M 2034 4250 
Q 1547 4250 1301 3770 
Q 1056 3291 1056 2328 
Q 1056 1369 1301 889 
Q 1547 409 2034 409 
Q 2525 409 2770 889 
Q 3016 1369 3016 2328 
Q 3016 3291 2770 3770 
Q 2525 4250 2034 4250 
z
M 2034 4750 
Q 2819 4750 3233 4129 
Q 3647 3509 3647 2328 
Q 3647 1150 3233 529 
Q 2819 -91 2034 -91 
Q 1250 -91 836 529 
Q 422 1150 422 2328 
Q 422 3509 836 4129 
Q 1250 4750 2034 4750 
z
" transform="scale(0.015625)"/>
       </defs>
       <use xlink:href="#DejaVuSans-52"/>
       <use xlink:href="#DejaVuSans-65" transform="translate(64.982422 0)"/>
       <use xlink:href="#DejaVuSans-73" transform="translate(126.505859 0)"/>
       <use xlink:href="#DejaVuSans-4e" transform="translate(178.605469 0)"/>
       <use xlink:href="#DejaVuSans-65" transform="translate(253.410156 0)"/>
       <use xlink:href="#DejaVuSans-74" transform="translate(314.933594 0)"/>
       <use xlink:href="#DejaVuSans-35" transform="translate(354.142578 0)"/>
       <use xlink:href="#DejaVuSans-30" transform="translate(417.765625 0)"/>
      </g>
     </g>
    </g>
    <g id="xtick_6">
     <g id="line2d_6">
      <g>
       <use xlink:href="#m93024683ee" x="498.142554" y="354.958125" style="stroke: #000000; stroke-width: 0.8"/>
      </g>
     </g>
     <g id="text_6">
      <!-- ResNet50-E -->
      <g transform="translate(474.378411 397.572159) rotate(-30) scale(0.1 -0.1)">
       <use xlink:href="#DejaVuSans-52"/>
       <use xlink:href="#DejaVuSans-65" transform="translate(64.982422 0)"/>
       <use xlink:href="#DejaVuSans-73" transform="translate(126.505859 0)"/>
       <use xlink:href="#DejaVuSans-4e" transform="translate(178.605469 0)"/>
       <use xlink:href="#DejaVuSans-65" transform="translate(253.410156 0)"/>
       <use xlink:href="#DejaVuSans-74" transform="translate(314.933594 0)"/>
       <use xlink:href="#DejaVuSans-35" transform="translate(354.142578 0)"/>
       <use xlink:href="#DejaVuSans-30" transform="translate(417.765625 0)"/>
       <use xlink:href="#DejaVuSans-2d" transform="translate(481.388672 0)"/>
       <use xlink:href="#DejaVuSans-45" transform="translate(517.472656 0)"/>
      </g>
     </g>
    </g>
    <g id="text_7">
     <!-- Model -->
     <g transform="translate(279.867969 410.971658) scale(0.1 -0.1)">
      <defs>
       <path id="DejaVuSans-4d" d="M 628 4666 
L 1569 4666 
L 2759 1491 
L 3956 4666 
L 4897 4666 
L 4897 0 
L 4281 0 
L 4281 4097 
L 3078 897 
L 2444 897 
L 1241 4097 
L 1241 0 
L 628 0 
L 628 4666 
z
" transform="scale(0.015625)"/>
       <path id="DejaVuSans-6f" d="M 1959 3097 
Q 1497 3097 1228 2736 
Q 959 2375 959 1747 
Q 959 1119 1226 758 
Q 1494 397 1959 397 
Q 2419 397 2687 759 
Q 2956 1122 2956 1747 
Q 2956 2369 2687 2733 
Q 2419 3097 1959 3097 
z
M 1959 3584 
Q 2709 3584 3137 3096 
Q 3566 2609 3566 1747 
Q 3566 888 3137 398 
Q 2709 -91 1959 -91 
Q 1206 -91 779 398 
Q 353 888 353 1747 
Q 353 2609 779 3096 
Q 1206 3584 1959 3584 
z
" transform="scale(0.015625)"/>
      </defs>
      <use xlink:href="#DejaVuSans-4d"/>
      <use xlink:href="#DejaVuSans-6f" transform="translate(86.279297 0)"/>
      <use xlink:href="#DejaVuSans-64" transform="translate(147.460938 0)"/>
      <use xlink:href="#DejaVuSans-65" transform="translate(210.9375 0)"/>
      <use xlink:href="#DejaVuSans-6c" transform="translate(272.460938 0)"/>
     </g>
    </g>
   </g>
   <g id="matplotlib.axis_2">
    <g id="ytick_1">
     <g id="line2d_7">
      <defs>
       <path id="mefb49bbbde" d="M 0 0 
L -3.5 0 
" style="stroke: #000000; stroke-width: 0.8"/>
      </defs>
      <g>
       <use xlink:href="#mefb49bbbde" x="43.78125" y="354.958125" style="stroke: #000000; stroke-width: 0.8"/>
      </g>
     </g>
     <g id="text_8">
      <!-- 0.0 -->
      <g transform="translate(20.878125 358.757344) scale(0.1 -0.1)">
       <defs>
        <path id="DejaVuSans-2e" d="M 684 794 
L 1344 794 
L 1344 0 
L 684 0 
L 684 794 
z
" transform="scale(0.015625)"/>
       </defs>
       <use xlink:href="#DejaVuSans-30"/>
       <use xlink:href="#DejaVuSans-2e" transform="translate(63.623047 0)"/>
       <use xlink:href="#DejaVuSans-30" transform="translate(95.410156 0)"/>
      </g>
     </g>
    </g>
    <g id="ytick_2">
     <g id="line2d_8">
      <g>
       <use xlink:href="#mefb49bbbde" x="43.78125" y="288.430125" style="stroke: #000000; stroke-width: 0.8"/>
      </g>
     </g>
     <g id="text_9">
      <!-- 0.2 -->
      <g transform="translate(20.878125 292.229344) scale(0.1 -0.1)">
       <use xlink:href="#DejaVuSans-30"/>
       <use xlink:href="#DejaVuSans-2e" transform="translate(63.623047 0)"/>
       <use xlink:href="#DejaVuSans-32" transform="translate(95.410156 0)"/>
      </g>
     </g>
    </g>
    <g id="ytick_3">
     <g id="line2d_9">
      <g>
       <use xlink:href="#mefb49bbbde" x="43.78125" y="221.902125" style="stroke: #000000; stroke-width: 0.8"/>
      </g>
     </g>
     <g id="text_10">
      <!-- 0.4 -->
      <g transform="translate(20.878125 225.701344) scale(0.1 -0.1)">
       <defs>
        <path id="DejaVuSans-34" d="M 2419 4116 
L 825 1625 
L 2419 1625 
L 2419 4116 
z
M 2253 4666 
L 3047 4666 
L 3047 1625 
L 3713 1625 
L 3713 1100 
L 3047 1100 
L 3047 0 
L 2419 0 
L 2419 1100 
L 313 1100 
L 313 1709 
L 2253 4666 
z
" transform="scale(0.015625)"/>
       </defs>
       <use xlink:href="#DejaVuSans-30"/>
       <use xlink:href="#DejaVuSans-2e" transform="translate(63.623047 0)"/>
       <use xlink:href="#DejaVuSans-34" transform="translate(95.410156 0)"/>
      </g>
     </g>
    </g>
    <g id="ytick_4">
     <g id="line2d_10">
      <g>
       <use xlink:href="#mefb49bbbde" x="43.78125" y="155.374125" style="stroke: #000000; stroke-width: 0.8"/>
      </g>
     </g>
     <g id="text_11">
      <!-- 0.6 -->
      <g transform="translate(20.878125 159.173344) scale(0.1 -0.1)">
       <defs>
        <path id="DejaVuSans-36" d="M 2113 2584 
Q 1688 2584 1439 2293 
Q 1191 2003 1191 1497 
Q 1191 994 1439 701 
Q 1688 409 2113 409 
Q 2538 409 2786 701 
Q 3034 994 3034 1497 
Q 3034 2003 2786 2293 
Q 2538 2584 2113 2584 
z
M 3366 4563 
L 3366 3988 
Q 3128 4100 2886 4159 
Q 2644 4219 2406 4219 
Q 1781 4219 1451 3797 
Q 1122 3375 1075 2522 
Q 1259 2794 1537 2939 
Q 1816 3084 2150 3084 
Q 2853 3084 3261 2657 
Q 3669 2231 3669 1497 
Q 3669 778 3244 343 
Q 2819 -91 2113 -91 
Q 1303 -91 875 529 
Q 447 1150 447 2328 
Q 447 3434 972 4092 
Q 1497 4750 2381 4750 
Q 2619 4750 2861 4703 
Q 3103 4656 3366 4563 
z
" transform="scale(0.015625)"/>
       </defs>
       <use xlink:href="#DejaVuSans-30"/>
       <use xlink:href="#DejaVuSans-2e" transform="translate(63.623047 0)"/>
       <use xlink:href="#DejaVuSans-36" transform="translate(95.410156 0)"/>
      </g>
     </g>
    </g>
    <g id="ytick_5">
     <g id="line2d_11">
      <g>
       <use xlink:href="#mefb49bbbde" x="43.78125" y="88.846125" style="stroke: #000000; stroke-width: 0.8"/>
      </g>
     </g>
     <g id="text_12">
      <!-- 0.8 -->
      <g transform="translate(20.878125 92.645344) scale(0.1 -0.1)">
       <defs>
        <path id="DejaVuSans-38" d="M 2034 2216 
Q 1584 2216 1326 1975 
Q 1069 1734 1069 1313 
Q 1069 891 1326 650 
Q 1584 409 2034 409 
Q 2484 409 2743 651 
Q 3003 894 3003 1313 
Q 3003 1734 2745 1975 
Q 2488 2216 2034 2216 
z
M 1403 2484 
Q 997 2584 770 2862 
Q 544 3141 544 3541 
Q 544 4100 942 4425 
Q 1341 4750 2034 4750 
Q 2731 4750 3128 4425 
Q 3525 4100 3525 3541 
Q 3525 3141 3298 2862 
Q 3072 2584 2669 2484 
Q 3125 2378 3379 2068 
Q 3634 1759 3634 1313 
Q 3634 634 3220 271 
Q 2806 -91 2034 -91 
Q 1263 -91 848 271 
Q 434 634 434 1313 
Q 434 1759 690 2068 
Q 947 2378 1403 2484 
z
M 1172 3481 
Q 1172 3119 1398 2916 
Q 1625 2713 2034 2713 
Q 2441 2713 2670 2916 
Q 2900 3119 2900 3481 
Q 2900 3844 2670 4047 
Q 2441 4250 2034 4250 
Q 1625 4250 1398 4047 
Q 1172 3844 1172 3481 
z
" transform="scale(0.015625)"/>
       </defs>
       <use xlink:href="#DejaVuSans-30"/>
       <use xlink:href="#DejaVuSans-2e" transform="translate(63.623047 0)"/>
       <use xlink:href="#DejaVuSans-38" transform="translate(95.410156 0)"/>
      </g>
     </g>
    </g>
    <g id="ytick_6">
     <g id="line2d_12">
      <g>
       <use xlink:href="#mefb49bbbde" x="43.78125" y="22.318125" style="stroke: #000000; stroke-width: 0.8"/>
      </g>
     </g>
     <g id="text_13">
      <!-- 1.0 -->
      <g transform="translate(20.878125 26.117344) scale(0.1 -0.1)">
       <use xlink:href="#DejaVuSans-31"/>
       <use xlink:href="#DejaVuSans-2e" transform="translate(63.623047 0)"/>
       <use xlink:href="#DejaVuSans-30" transform="translate(95.410156 0)"/>
      </g>
     </g>
    </g>
    <g id="text_14">
     <!-- Accuracy -->
     <g transform="translate(14.798438 211.46625) rotate(-90) scale(0.1 -0.1)">
      <defs>
       <path id="DejaVuSans-41" d="M 2188 4044 
L 1331 1722 
L 3047 1722 
L 2188 4044 
z
M 1831 4666 
L 2547 4666 
L 4325 0 
L 3669 0 
L 3244 1197 
L 1141 1197 
L 716 0 
L 50 0 
L 1831 4666 
z
" transform="scale(0.015625)"/>
       <path id="DejaVuSans-63" d="M 3122 3366 
L 3122 2828 
Q 2878 2963 2633 3030 
Q 2388 3097 2138 3097 
Q 1578 3097 1268 2742 
Q 959 2388 959 1747 
Q 959 1106 1268 751 
Q 1578 397 2138 397 
Q 2388 397 2633 464 
Q 2878 531 3122 666 
L 3122 134 
Q 2881 22 2623 -34 
Q 2366 -91 2075 -91 
Q 1284 -91 818 406 
Q 353 903 353 1747 
Q 353 2603 823 3093 
Q 1294 3584 2113 3584 
Q 2378 3584 2631 3529 
Q 2884 3475 3122 3366 
z
" transform="scale(0.015625)"/>
       <path id="DejaVuSans-75" d="M 544 1381 
L 544 3500 
L 1119 3500 
L 1119 1403 
Q 1119 906 1312 657 
Q 1506 409 1894 409 
Q 2359 409 2629 706 
Q 2900 1003 2900 1516 
L 2900 3500 
L 3475 3500 
L 3475 0 
L 2900 0 
L 2900 538 
Q 2691 219 2414 64 
Q 2138 -91 1772 -91 
Q 1169 -91 856 284 
Q 544 659 544 1381 
z
M 1991 3584 
L 1991 3584 
z
" transform="scale(0.015625)"/>
       <path id="DejaVuSans-72" d="M 2631 2963 
Q 2534 3019 2420 3045 
Q 2306 3072 2169 3072 
Q 1681 3072 1420 2755 
Q 1159 2438 1159 1844 
L 1159 0 
L 581 0 
L 581 3500 
L 1159 3500 
L 1159 2956 
Q 1341 3275 1631 3429 
Q 1922 3584 2338 3584 
Q 2397 3584 2469 3576 
Q 2541 3569 2628 3553 
L 2631 2963 
z
" transform="scale(0.015625)"/>
       <path id="DejaVuSans-61" d="M 2194 1759 
Q 1497 1759 1228 1600 
Q 959 1441 959 1056 
Q 959 750 1161 570 
Q 1363 391 1709 391 
Q 2188 391 2477 730 
Q 2766 1069 2766 1631 
L 2766 1759 
L 2194 1759 
z
M 3341 1997 
L 3341 0 
L 2766 0 
L 2766 531 
Q 2569 213 2275 61 
Q 1981 -91 1556 -91 
Q 1019 -91 701 211 
Q 384 513 384 1019 
Q 384 1609 779 1909 
Q 1175 2209 1959 2209 
L 2766 2209 
L 2766 2266 
Q 2766 2663 2505 2880 
Q 2244 3097 1772 3097 
Q 1472 3097 1187 3025 
Q 903 2953 641 2809 
L 641 3341 
Q 956 3463 1253 3523 
Q 1550 3584 1831 3584 
Q 2591 3584 2966 3190 
Q 3341 2797 3341 1997 
z
" transform="scale(0.015625)"/>
       <path id="DejaVuSans-79" d="M 2059 -325 
Q 1816 -950 1584 -1140 
Q 1353 -1331 966 -1331 
L 506 -1331 
L 506 -850 
L 844 -850 
Q 1081 -850 1212 -737 
Q 1344 -625 1503 -206 
L 1606 56 
L 191 3500 
L 800 3500 
L 1894 763 
L 2988 3500 
L 3597 3500 
L 2059 -325 
z
" transform="scale(0.015625)"/>
      </defs>
      <use xlink:href="#DejaVuSans-41"/>
      <use xlink:href="#DejaVuSans-63" transform="translate(66.658203 0)"/>
      <use xlink:href="#DejaVuSans-63" transform="translate(121.638672 0)"/>
      <use xlink:href="#DejaVuSans-75" transform="translate(176.619141 0)"/>
      <use xlink:href="#DejaVuSans-72" transform="translate(239.998047 0)"/>
      <use xlink:href="#DejaVuSans-61" transform="translate(281.111328 0)"/>
      <use xlink:href="#DejaVuSans-63" transform="translate(342.390625 0)"/>
      <use xlink:href="#DejaVuSans-79" transform="translate(397.371094 0)"/>
     </g>
    </g>
   </g>
   <g id="LineCollection_1">
    <path d="M 106.296917 119.427358 
L 106.296917 116.295756 
" clip-path="url(#pb6cc965c68)" style="fill: none; stroke: #000000; stroke-width: 1.5"/>
   </g>
   <g id="line2d_13">
    <defs>
     <path id="m1ed5698b7e" d="M 5 0 
L -5 -0 
" style="stroke: #000000"/>
    </defs>
    <g clip-path="url(#pb6cc965c68)">
     <use xlink:href="#m1ed5698b7e" x="106.296917" y="119.427358" style="stroke: #000000"/>
    </g>
   </g>
   <g id="line2d_14">
    <g clip-path="url(#pb6cc965c68)">
     <use xlink:href="#m1ed5698b7e" x="106.296917" y="116.295756" style="stroke: #000000"/>
    </g>
   </g>
   <g id="LineCollection_2">
    <path d="M 189.668329 182.119294 
L 189.668329 166.954803 
" clip-path="url(#pb6cc965c68)" style="fill: none; stroke: #000000; stroke-width: 1.5"/>
   </g>
   <g id="line2d_15">
    <g clip-path="url(#pb6cc965c68)">
     <use xlink:href="#m1ed5698b7e" x="189.668329" y="182.119294" style="stroke: #000000"/>
    </g>
   </g>
   <g id="line2d_16">
    <g clip-path="url(#pb6cc965c68)">
     <use xlink:href="#m1ed5698b7e" x="189.668329" y="166.954803" style="stroke: #000000"/>
    </g>
   </g>
   <g id="LineCollection_3">
    <path d="M 273.039741 126.554444 
L 273.039741 124.701521 
" clip-path="url(#pb6cc965c68)" style="fill: none; stroke: #000000; stroke-width: 1.5"/>
   </g>
   <g id="line2d_17">
    <g clip-path="url(#pb6cc965c68)">
     <use xlink:href="#m1ed5698b7e" x="273.039741" y="126.554444" style="stroke: #000000"/>
    </g>
   </g>
   <g id="line2d_18">
    <g clip-path="url(#pb6cc965c68)">
     <use xlink:href="#m1ed5698b7e" x="273.039741" y="124.701521" style="stroke: #000000"/>
    </g>
   </g>
   <g id="LineCollection_4">
    <path d="M 356.411153 170.963257 
L 356.411153 159.12843 
" clip-path="url(#pb6cc965c68)" style="fill: none; stroke: #000000; stroke-width: 1.5"/>
   </g>
   <g id="line2d_19">
    <g clip-path="url(#pb6cc965c68)">
     <use xlink:href="#m1ed5698b7e" x="356.411153" y="170.963257" style="stroke: #000000"/>
    </g>
   </g>
   <g id="line2d_20">
    <g clip-path="url(#pb6cc965c68)">
     <use xlink:href="#m1ed5698b7e" x="356.411153" y="159.12843" style="stroke: #000000"/>
    </g>
   </g>
   <g id="LineCollection_5">
    <path d="M 439.782565 154.851376 
L 439.782565 149.081667 
" clip-path="url(#pb6cc965c68)" style="fill: none; stroke: #000000; stroke-width: 1.5"/>
   </g>
   <g id="line2d_21">
    <g clip-path="url(#pb6cc965c68)">
     <use xlink:href="#m1ed5698b7e" x="439.782565" y="154.851376" style="stroke: #000000"/>
    </g>
   </g>
   <g id="line2d_22">
    <g clip-path="url(#pb6cc965c68)">
     <use xlink:href="#m1ed5698b7e" x="439.782565" y="149.081667" style="stroke: #000000"/>
    </g>
   </g>
   <g id="LineCollection_6">
    <path d="M 523.153977 171.311492 
L 523.153977 158.910877 
" clip-path="url(#pb6cc965c68)" style="fill: none; stroke: #000000; stroke-width: 1.5"/>
   </g>
   <g id="line2d_23">
    <g clip-path="url(#pb6cc965c68)">
     <use xlink:href="#m1ed5698b7e" x="523.153977" y="171.311492" style="stroke: #000000"/>
    </g>
   </g>
   <g id="line2d_24">
    <g clip-path="url(#pb6cc965c68)">
     <use xlink:href="#m1ed5698b7e" x="523.153977" y="158.910877" style="stroke: #000000"/>
    </g>
   </g>
   <g id="line2d_25">
    <defs>
     <path id="m867f2b0549" d="M 0 2 
C 0.530406 2 1.03916 1.789267 1.414214 1.414214 
C 1.789267 1.03916 2 0.530406 2 0 
C 2 -0.530406 1.789267 -1.03916 1.414214 -1.414214 
C 1.03916 -1.789267 0.530406 -2 0 -2 
C -0.530406 -2 -1.03916 -1.789267 -1.414214 -1.414214 
C -1.789267 -1.03916 -2 -0.530406 -2 0 
C -2 0.530406 -1.789267 1.03916 -1.414214 1.414214 
C -1.03916 1.789267 -0.530406 2 0 2 
z
" style="stroke: #000000"/>
    </defs>
    <g clip-path="url(#pb6cc965c68)">
     <use xlink:href="#m867f2b0549" x="106.296917" y="117.861557" style="stroke: #000000"/>
    </g>
   </g>
   <g id="line2d_26">
    <g clip-path="url(#pb6cc965c68)">
     <use xlink:href="#m867f2b0549" x="189.668329" y="174.537048" style="stroke: #000000"/>
    </g>
   </g>
   <g id="line2d_27">
    <g clip-path="url(#pb6cc965c68)">
     <use xlink:href="#m867f2b0549" x="273.039741" y="125.627982" style="stroke: #000000"/>
    </g>
   </g>
   <g id="line2d_28">
    <g clip-path="url(#pb6cc965c68)">
     <use xlink:href="#m867f2b0549" x="356.411153" y="165.045843" style="stroke: #000000"/>
    </g>
   </g>
   <g id="line2d_29">
    <g clip-path="url(#pb6cc965c68)">
     <use xlink:href="#m867f2b0549" x="439.782565" y="151.966522" style="stroke: #000000"/>
    </g>
   </g>
   <g id="line2d_30">
    <g clip-path="url(#pb6cc965c68)">
     <use xlink:href="#m867f2b0549" x="523.153977" y="165.111185" style="stroke: #000000"/>
    </g>
   </g>
   <g id="patch_3">
    <path d="M 43.78125 354.958125 
L 43.78125 22.318125 
" style="fill: none; stroke: #000000; stroke-width: 0.8; stroke-linejoin: miter; stroke-linecap: square"/>
   </g>
   <g id="patch_4">
    <path d="M 545.98125 354.958125 
L 545.98125 22.318125 
" style="fill: none; stroke: #000000; stroke-width: 0.8; stroke-linejoin: miter; stroke-linecap: square"/>
   </g>
   <g id="patch_5">
    <path d="M 43.78125 354.958125 
L 545.98125 354.958125 
" style="fill: none; stroke: #000000; stroke-width: 0.8; stroke-linejoin: miter; stroke-linecap: square"/>
   </g>
   <g id="patch_6">
    <path d="M 43.78125 22.318125 
L 545.98125 22.318125 
" style="fill: none; stroke: #000000; stroke-width: 0.8; stroke-linejoin: miter; stroke-linecap: square"/>
   </g>
   <g id="PathCollection_1">
    <defs>
     <path id="C0_0_6e834d1f9a" d="M 0 1.6 
C 0.424325 1.6 0.831328 1.431414 1.131371 1.131371 
C 1.431414 0.831328 1.6 0.424325 1.6 -0 
C 1.6 -0.424325 1.431414 -0.831328 1.131371 -1.131371 
C 0.831328 -1.431414 0.424325 -1.6 0 -1.6 
C -0.424325 -1.6 -0.831328 -1.431414 -1.131371 -1.131371 
C -1.431414 -0.831328 -1.6 -0.424325 -1.6 0 
C -1.6 0.424325 -1.431414 0.831328 -1.131371 1.131371 
C -0.831328 1.431414 -0.424325 1.6 0 1.6 
z
"/>
    </defs>
    <g clip-path="url(#pb6cc965c68)">
     <use xlink:href="#C0_0_6e834d1f9a" x="81.285494" y="122.423217" style="fill: #4c72b0"/>
    </g>
    <g clip-path="url(#pb6cc965c68)">
     <use xlink:href="#C0_0_6e834d1f9a" x="90.956505" y="119.865834" style="fill: #4c72b0"/>
    </g>
    <g clip-path="url(#pb6cc965c68)">
     <use xlink:href="#C0_0_6e834d1f9a" x="77.925499" y="114.518325" style="fill: #4c72b0"/>
    </g>
    <g clip-path="url(#pb6cc965c68)">
     <use xlink:href="#C0_0_6e834d1f9a" x="75.287957" y="112.535867" style="fill: #4c72b0"/>
    </g>
    <g clip-path="url(#pb6cc965c68)">
     <use xlink:href="#C0_0_6e834d1f9a" x="84.144907" y="117.190694" style="fill: #4c72b0"/>
    </g>
    <g clip-path="url(#pb6cc965c68)">
     <use xlink:href="#C0_0_6e834d1f9a" x="84.478092" y="121.425755" style="fill: #4c72b0"/>
    </g>
    <g clip-path="url(#pb6cc965c68)">
     <use xlink:href="#C0_0_6e834d1f9a" x="68.403747" y="119.676039" style="fill: #4c72b0"/>
    </g>
    <g clip-path="url(#pb6cc965c68)">
     <use xlink:href="#C0_0_6e834d1f9a" x="65.211148" y="118.678576" style="fill: #4c72b0"/>
    </g>
    <g clip-path="url(#pb6cc965c68)">
     <use xlink:href="#C0_0_6e834d1f9a" x="81.285494" y="118.871142" style="fill: #4c72b0"/>
    </g>
    <g clip-path="url(#pb6cc965c68)">
     <use xlink:href="#C0_0_6e834d1f9a" x="71.753643" y="119.924019" style="fill: #4c72b0"/>
    </g>
    <g clip-path="url(#pb6cc965c68)">
     <use xlink:href="#C0_0_6e834d1f9a" x="81.285494" y="114.523866" style="fill: #4c72b0"/>
    </g>
    <g clip-path="url(#pb6cc965c68)">
     <use xlink:href="#C0_0_6e834d1f9a" x="84.487952" y="113.555496" style="fill: #4c72b0"/>
    </g>
    <g clip-path="url(#pb6cc965c68)">
     <use xlink:href="#C0_0_6e834d1f9a" x="77.976002" y="118.318381" style="fill: #4c72b0"/>
    </g>
    <g clip-path="url(#pb6cc965c68)">
     <use xlink:href="#C0_0_6e834d1f9a" x="87.488209" y="116.87206" style="fill: #4c72b0"/>
    </g>
    <g clip-path="url(#pb6cc965c68)">
     <use xlink:href="#C0_0_6e834d1f9a" x="78.057041" y="121.536584" style="fill: #4c72b0"/>
    </g>
    <g clip-path="url(#pb6cc965c68)">
     <use xlink:href="#C0_0_6e834d1f9a" x="75.112824" y="119.994673" style="fill: #4c72b0"/>
    </g>
    <g clip-path="url(#pb6cc965c68)">
     <use xlink:href="#C0_0_6e834d1f9a" x="81.285494" y="110.015888" style="fill: #4c72b0"/>
    </g>
    <g clip-path="url(#pb6cc965c68)">
     <use xlink:href="#C0_0_6e834d1f9a" x="87.804461" y="120.974126" style="fill: #4c72b0"/>
    </g>
    <g clip-path="url(#pb6cc965c68)">
     <use xlink:href="#C0_0_6e834d1f9a" x="94.298922" y="119.538887" style="fill: #4c72b0"/>
    </g>
    <g clip-path="url(#pb6cc965c68)">
     <use xlink:href="#C0_0_6e834d1f9a" x="75.023042" y="116.791709" style="fill: #4c72b0"/>
    </g>
   </g>
   <g id="PathCollection_2">
    <defs>
     <path id="C1_0_6653b38d19" d="M 0 1.6 
C 0.424325 1.6 0.831328 1.431414 1.131371 1.131371 
C 1.431414 0.831328 1.6 0.424325 1.6 -0 
C 1.6 -0.424325 1.431414 -0.831328 1.131371 -1.131371 
C 0.831328 -1.431414 0.424325 -1.6 0 -1.6 
C -0.424325 -1.6 -0.831328 -1.431414 -1.131371 -1.131371 
C -1.431414 -0.831328 -1.6 -0.424325 -1.6 0 
C -1.6 0.424325 -1.431414 0.831328 -1.131371 1.131371 
C -0.831328 1.431414 -0.424325 1.6 0 1.6 
z
"/>
    </defs>
    <g clip-path="url(#pb6cc965c68)">
     <use xlink:href="#C1_0_6653b38d19" x="162.850614" y="179.307691" style="fill: #dd8452"/>
    </g>
    <g clip-path="url(#pb6cc965c68)">
     <use xlink:href="#C1_0_6653b38d19" x="164.656906" y="149.659494" style="fill: #dd8452"/>
    </g>
    <g clip-path="url(#pb6cc965c68)">
     <use xlink:href="#C1_0_6653b38d19" x="164.656906" y="161.03057" style="fill: #dd8452"/>
    </g>
    <g clip-path="url(#pb6cc965c68)">
     <use xlink:href="#C1_0_6653b38d19" x="164.656906" y="201.167366" style="fill: #dd8452"/>
    </g>
    <g clip-path="url(#pb6cc965c68)">
     <use xlink:href="#C1_0_6653b38d19" x="162.635255" y="164.67131" style="fill: #dd8452"/>
    </g>
    <g clip-path="url(#pb6cc965c68)">
     <use xlink:href="#C1_0_6653b38d19" x="165.378271" y="166.519387" style="fill: #dd8452"/>
    </g>
    <g clip-path="url(#pb6cc965c68)">
     <use xlink:href="#C1_0_6653b38d19" x="168.605883" y="165.629982" style="fill: #dd8452"/>
    </g>
    <g clip-path="url(#pb6cc965c68)">
     <use xlink:href="#C1_0_6653b38d19" x="161.416986" y="186.633502" style="fill: #dd8452"/>
    </g>
    <g clip-path="url(#pb6cc965c68)">
     <use xlink:href="#C1_0_6653b38d19" x="164.656906" y="187.481345" style="fill: #dd8452"/>
    </g>
    <g clip-path="url(#pb6cc965c68)">
     <use xlink:href="#C1_0_6653b38d19" x="164.656906" y="175.425899" style="fill: #dd8452"/>
    </g>
    <g clip-path="url(#pb6cc965c68)">
     <use xlink:href="#C1_0_6653b38d19" x="164.145643" y="182.596548" style="fill: #dd8452"/>
    </g>
    <g clip-path="url(#pb6cc965c68)">
     <use xlink:href="#C1_0_6653b38d19" x="162.5603" y="168.262176" style="fill: #dd8452"/>
    </g>
    <g clip-path="url(#pb6cc965c68)">
     <use xlink:href="#C1_0_6653b38d19" x="161.521317" y="159.880717" style="fill: #dd8452"/>
    </g>
    <g clip-path="url(#pb6cc965c68)">
     <use xlink:href="#C1_0_6653b38d19" x="164.656906" y="210.222112" style="fill: #dd8452"/>
    </g>
    <g clip-path="url(#pb6cc965c68)">
     <use xlink:href="#C1_0_6653b38d19" x="166.546449" y="184.835298" style="fill: #dd8452"/>
    </g>
    <g clip-path="url(#pb6cc965c68)">
     <use xlink:href="#C1_0_6653b38d19" x="169.1012" y="178.522189" style="fill: #dd8452"/>
    </g>
    <g clip-path="url(#pb6cc965c68)">
     <use xlink:href="#C1_0_6653b38d19" x="164.656906" y="170.76276" style="fill: #dd8452"/>
    </g>
    <g clip-path="url(#pb6cc965c68)">
     <use xlink:href="#C1_0_6653b38d19" x="164.656906" y="140.920612" style="fill: #dd8452"/>
    </g>
    <g clip-path="url(#pb6cc965c68)">
     <use xlink:href="#C1_0_6653b38d19" x="160.323161" y="177.199166" style="fill: #dd8452"/>
    </g>
    <g clip-path="url(#pb6cc965c68)">
     <use xlink:href="#C1_0_6653b38d19" x="166.128021" y="180.012842" style="fill: #dd8452"/>
    </g>
   </g>
   <g id="PathCollection_3">
    <defs>
     <path id="C2_0_c8a2bf13d0" d="M 0 1.6 
C 0.424325 1.6 0.831328 1.431414 1.131371 1.131371 
C 1.431414 0.831328 1.6 0.424325 1.6 -0 
C 1.6 -0.424325 1.431414 -0.831328 1.131371 -1.131371 
C 0.831328 -1.431414 0.424325 -1.6 0 -1.6 
C -0.424325 -1.6 -0.831328 -1.431414 -1.131371 -1.131371 
C -1.431414 -0.831328 -1.6 -0.424325 -1.6 0 
C -1.6 0.424325 -1.431414 0.831328 -1.131371 1.131371 
C -0.831328 1.431414 -0.424325 1.6 0 1.6 
z
"/>
    </defs>
    <g clip-path="url(#pb6cc965c68)">
     <use xlink:href="#C2_0_c8a2bf13d0" x="267.463844" y="124.423685" style="fill: #55a868"/>
    </g>
    <g clip-path="url(#pb6cc965c68)">
     <use xlink:href="#C2_0_c8a2bf13d0" x="241.747901" y="127.249829" style="fill: #55a868"/>
    </g>
    <g clip-path="url(#pb6cc965c68)">
     <use xlink:href="#C2_0_c8a2bf13d0" x="228.595702" y="124.875314" style="fill: #55a868"/>
    </g>
    <g clip-path="url(#pb6cc965c68)">
     <use xlink:href="#C2_0_c8a2bf13d0" x="254.356772" y="127.057264" style="fill: #55a868"/>
    </g>
    <g clip-path="url(#pb6cc965c68)">
     <use xlink:href="#C2_0_c8a2bf13d0" x="244.692918" y="128.790355" style="fill: #55a868"/>
    </g>
    <g clip-path="url(#pb6cc965c68)">
     <use xlink:href="#C2_0_c8a2bf13d0" x="264.184153" y="125.119138" style="fill: #55a868"/>
    </g>
    <g clip-path="url(#pb6cc965c68)">
     <use xlink:href="#C2_0_c8a2bf13d0" x="253.545665" y="123.89309" style="fill: #55a868"/>
    </g>
    <g clip-path="url(#pb6cc965c68)">
     <use xlink:href="#C2_0_c8a2bf13d0" x="248.028318" y="129.176872" style="fill: #55a868"/>
    </g>
    <g clip-path="url(#pb6cc965c68)">
     <use xlink:href="#C2_0_c8a2bf13d0" x="231.874092" y="125.576308" style="fill: #55a868"/>
    </g>
    <g clip-path="url(#pb6cc965c68)">
     <use xlink:href="#C2_0_c8a2bf13d0" x="256.29993" y="122.060252" style="fill: #55a868"/>
    </g>
    <g clip-path="url(#pb6cc965c68)">
     <use xlink:href="#C2_0_c8a2bf13d0" x="250.260566" y="124.564992" style="fill: #55a868"/>
    </g>
    <g clip-path="url(#pb6cc965c68)">
     <use xlink:href="#C2_0_c8a2bf13d0" x="238.403737" y="126.939508" style="fill: #55a868"/>
    </g>
    <g clip-path="url(#pb6cc965c68)">
     <use xlink:href="#C2_0_c8a2bf13d0" x="241.22847" y="123.344485" style="fill: #55a868"/>
    </g>
    <g clip-path="url(#pb6cc965c68)">
     <use xlink:href="#C2_0_c8a2bf13d0" x="257.699189" y="126.730317" style="fill: #55a868"/>
    </g>
    <g clip-path="url(#pb6cc965c68)">
     <use xlink:href="#C2_0_c8a2bf13d0" x="260.879627" y="125.69822" style="fill: #55a868"/>
    </g>
    <g clip-path="url(#pb6cc965c68)">
     <use xlink:href="#C2_0_c8a2bf13d0" x="235.212573" y="125.937889" style="fill: #55a868"/>
    </g>
    <g clip-path="url(#pb6cc965c68)">
     <use xlink:href="#C2_0_c8a2bf13d0" x="244.1332" y="124.952894" style="fill: #55a868"/>
    </g>
    <g clip-path="url(#pb6cc965c68)">
     <use xlink:href="#C2_0_c8a2bf13d0" x="248.028318" y="122.173852" style="fill: #55a868"/>
    </g>
    <g clip-path="url(#pb6cc965c68)">
     <use xlink:href="#C2_0_c8a2bf13d0" x="251.127064" y="127.939741" style="fill: #55a868"/>
    </g>
    <g clip-path="url(#pb6cc965c68)">
     <use xlink:href="#C2_0_c8a2bf13d0" x="247.287387" y="126.055645" style="fill: #55a868"/>
    </g>
   </g>
   <g id="PathCollection_4">
    <defs>
     <path id="C3_0_86321f4b9d" d="M 0 1.6 
C 0.424325 1.6 0.831328 1.431414 1.131371 1.131371 
C 1.431414 0.831328 1.6 0.424325 1.6 -0 
C 1.6 -0.424325 1.431414 -0.831328 1.131371 -1.131371 
C 0.831328 -1.431414 0.424325 -1.6 0 -1.6 
C -0.424325 -1.6 -0.831328 -1.431414 -1.131371 -1.131371 
C -1.431414 -0.831328 -1.6 -0.424325 -1.6 0 
C -1.6 0.424325 -1.431414 0.831328 -1.131371 1.131371 
C -0.831328 1.431414 -0.424325 1.6 0 1.6 
z
"/>
    </defs>
    <g clip-path="url(#pb6cc965c68)">
     <use xlink:href="#C3_0_86321f4b9d" x="328.16021" y="165.010724" style="fill: #c44e52"/>
    </g>
    <g clip-path="url(#pb6cc965c68)">
     <use xlink:href="#C3_0_86321f4b9d" x="337.1558" y="173.421275" style="fill: #c44e52"/>
    </g>
    <g clip-path="url(#pb6cc965c68)">
     <use xlink:href="#C3_0_86321f4b9d" x="328.601832" y="159.797596" style="fill: #c44e52"/>
    </g>
    <g clip-path="url(#pb6cc965c68)">
     <use xlink:href="#C3_0_86321f4b9d" x="334.759275" y="175.664181" style="fill: #c44e52"/>
    </g>
    <g clip-path="url(#pb6cc965c68)">
     <use xlink:href="#C3_0_86321f4b9d" x="334.236381" y="164.144871" style="fill: #c44e52"/>
    </g>
    <g clip-path="url(#pb6cc965c68)">
     <use xlink:href="#C3_0_86321f4b9d" x="325.462531" y="163.103077" style="fill: #c44e52"/>
    </g>
    <g clip-path="url(#pb6cc965c68)">
     <use xlink:href="#C3_0_86321f4b9d" x="331.39973" y="155.083198" style="fill: #c44e52"/>
    </g>
    <g clip-path="url(#pb6cc965c68)">
     <use xlink:href="#C3_0_86321f4b9d" x="328.929807" y="178.628863" style="fill: #c44e52"/>
    </g>
    <g clip-path="url(#pb6cc965c68)">
     <use xlink:href="#C3_0_86321f4b9d" x="328.127668" y="169.128029" style="fill: #c44e52"/>
    </g>
    <g clip-path="url(#pb6cc965c68)">
     <use xlink:href="#C3_0_86321f4b9d" x="331.39973" y="165.859953" style="fill: #c44e52"/>
    </g>
    <g clip-path="url(#pb6cc965c68)">
     <use xlink:href="#C3_0_86321f4b9d" x="331.39973" y="169.855346" style="fill: #c44e52"/>
    </g>
    <g clip-path="url(#pb6cc965c68)">
     <use xlink:href="#C3_0_86321f4b9d" x="331.39973" y="150.796879" style="fill: #c44e52"/>
    </g>
    <g clip-path="url(#pb6cc965c68)">
     <use xlink:href="#C3_0_86321f4b9d" x="331.39973" y="161.569477" style="fill: #c44e52"/>
    </g>
    <g clip-path="url(#pb6cc965c68)">
     <use xlink:href="#C3_0_86321f4b9d" x="331.39973" y="175.716825" style="fill: #c44e52"/>
    </g>
    <g clip-path="url(#pb6cc965c68)">
     <use xlink:href="#C3_0_86321f4b9d" x="325.25558" y="173.201002" style="fill: #c44e52"/>
    </g>
    <g clip-path="url(#pb6cc965c68)">
     <use xlink:href="#C3_0_86321f4b9d" x="331.590893" y="158.336035" style="fill: #c44e52"/>
    </g>
    <g clip-path="url(#pb6cc965c68)">
     <use xlink:href="#C3_0_86321f4b9d" x="337.396396" y="163.05736" style="fill: #c44e52"/>
    </g>
    <g clip-path="url(#pb6cc965c68)">
     <use xlink:href="#C3_0_86321f4b9d" x="331.39973" y="123.571685" style="fill: #c44e52"/>
    </g>
    <g clip-path="url(#pb6cc965c68)">
     <use xlink:href="#C3_0_86321f4b9d" x="328.457114" y="174.172143" style="fill: #c44e52"/>
    </g>
    <g clip-path="url(#pb6cc965c68)">
     <use xlink:href="#C3_0_86321f4b9d" x="331.39973" y="180.798344" style="fill: #c44e52"/>
    </g>
   </g>
   <g id="PathCollection_5">
    <defs>
     <path id="C4_0_eb747aa0c2" d="M 0 1.6 
C 0.424325 1.6 0.831328 1.431414 1.131371 1.131371 
C 1.431414 0.831328 1.6 0.424325 1.6 -0 
C 1.6 -0.424325 1.431414 -0.831328 1.131371 -1.131371 
C 0.831328 -1.431414 0.424325 -1.6 0 -1.6 
C -0.424325 -1.6 -0.831328 -1.431414 -1.131371 -1.131371 
C -1.431414 -0.831328 -1.6 -0.424325 -1.6 0 
C -1.6 0.424325 -1.431414 0.831328 -1.131371 1.131371 
C -0.831328 1.431414 -0.424325 1.6 0 1.6 
z
"/>
    </defs>
    <g clip-path="url(#pb6cc965c68)">
     <use xlink:href="#C4_0_eb747aa0c2" x="411.41769" y="157.776392" style="fill: #8172b3"/>
    </g>
    <g clip-path="url(#pb6cc965c68)">
     <use xlink:href="#C4_0_eb747aa0c2" x="418.13008" y="143.854223" style="fill: #8172b3"/>
    </g>
    <g clip-path="url(#pb6cc965c68)">
     <use xlink:href="#C4_0_eb747aa0c2" x="414.771142" y="150.515787" style="fill: #8172b3"/>
    </g>
    <g clip-path="url(#pb6cc965c68)">
     <use xlink:href="#C4_0_eb747aa0c2" x="417.829263" y="153.449981" style="fill: #8172b3"/>
    </g>
    <g clip-path="url(#pb6cc965c68)">
     <use xlink:href="#C4_0_eb747aa0c2" x="414.771142" y="162.388458" style="fill: #8172b3"/>
    </g>
    <g clip-path="url(#pb6cc965c68)">
     <use xlink:href="#C4_0_eb747aa0c2" x="414.771142" y="157.976073" style="fill: #8172b3"/>
    </g>
    <g clip-path="url(#pb6cc965c68)">
     <use xlink:href="#C4_0_eb747aa0c2" x="421.025468" y="156.031961" style="fill: #8172b3"/>
    </g>
    <g clip-path="url(#pb6cc965c68)">
     <use xlink:href="#C4_0_eb747aa0c2" x="408.274758" y="156.64487" style="fill: #8172b3"/>
    </g>
    <g clip-path="url(#pb6cc965c68)">
     <use xlink:href="#C4_0_eb747aa0c2" x="411.677205" y="153.527635" style="fill: #8172b3"/>
    </g>
    <g clip-path="url(#pb6cc965c68)">
     <use xlink:href="#C4_0_eb747aa0c2" x="417.737376" y="149.012637" style="fill: #8172b3"/>
    </g>
    <g clip-path="url(#pb6cc965c68)">
     <use xlink:href="#C4_0_eb747aa0c2" x="420.943135" y="142.104246" style="fill: #8172b3"/>
    </g>
    <g clip-path="url(#pb6cc965c68)">
     <use xlink:href="#C4_0_eb747aa0c2" x="414.771142" y="143.93465" style="fill: #8172b3"/>
    </g>
    <g clip-path="url(#pb6cc965c68)">
     <use xlink:href="#C4_0_eb747aa0c2" x="418.110727" y="157.623859" style="fill: #8172b3"/>
    </g>
    <g clip-path="url(#pb6cc965c68)">
     <use xlink:href="#C4_0_eb747aa0c2" x="411.591548" y="142.900194" style="fill: #8172b3"/>
    </g>
    <g clip-path="url(#pb6cc965c68)">
     <use xlink:href="#C4_0_eb747aa0c2" x="412.258368" y="148.391408" style="fill: #8172b3"/>
    </g>
    <g clip-path="url(#pb6cc965c68)">
     <use xlink:href="#C4_0_eb747aa0c2" x="411.668651" y="161.159868" style="fill: #8172b3"/>
    </g>
    <g clip-path="url(#pb6cc965c68)">
     <use xlink:href="#C4_0_eb747aa0c2" x="408.725066" y="151.999524" style="fill: #8172b3"/>
    </g>
    <g clip-path="url(#pb6cc965c68)">
     <use xlink:href="#C4_0_eb747aa0c2" x="414.771142" y="154.775638" style="fill: #8172b3"/>
    </g>
    <g clip-path="url(#pb6cc965c68)">
     <use xlink:href="#C4_0_eb747aa0c2" x="420.344184" y="146.993645" style="fill: #8172b3"/>
    </g>
    <g clip-path="url(#pb6cc965c68)">
     <use xlink:href="#C4_0_eb747aa0c2" x="408.900811" y="148.269381" style="fill: #8172b3"/>
    </g>
   </g>
   <g id="PathCollection_6">
    <defs>
     <path id="C5_0_72b40af5cb" d="M 0 1.6 
C 0.424325 1.6 0.831328 1.431414 1.131371 1.131371 
C 1.431414 0.831328 1.6 0.424325 1.6 -0 
C 1.6 -0.424325 1.431414 -0.831328 1.131371 -1.131371 
C 0.831328 -1.431414 0.424325 -1.6 0 -1.6 
C -0.424325 -1.6 -0.831328 -1.431414 -1.131371 -1.131371 
C -1.431414 -0.831328 -1.6 -0.424325 -1.6 0 
C -1.6 0.424325 -1.431414 0.831328 -1.131371 1.131371 
C -0.831328 1.431414 -0.424325 1.6 0 1.6 
z
"/>
    </defs>
    <g clip-path="url(#pb6cc965c68)">
     <use xlink:href="#C5_0_72b40af5cb" x="498.142554" y="174.011527" style="fill: #937860"/>
    </g>
    <g clip-path="url(#pb6cc965c68)">
     <use xlink:href="#C5_0_72b40af5cb" x="496.781898" y="162.640832" style="fill: #937860"/>
    </g>
    <g clip-path="url(#pb6cc965c68)">
     <use xlink:href="#C5_0_72b40af5cb" x="498.142554" y="138.840024" style="fill: #937860"/>
    </g>
    <g clip-path="url(#pb6cc965c68)">
     <use xlink:href="#C5_0_72b40af5cb" x="493.974568" y="160.882534" style="fill: #937860"/>
    </g>
    <g clip-path="url(#pb6cc965c68)">
     <use xlink:href="#C5_0_72b40af5cb" x="498.142554" y="165.566706" style="fill: #937860"/>
    </g>
    <g clip-path="url(#pb6cc965c68)">
     <use xlink:href="#C5_0_72b40af5cb" x="499.761929" y="161.162641" style="fill: #937860"/>
    </g>
    <g clip-path="url(#pb6cc965c68)">
     <use xlink:href="#C5_0_72b40af5cb" x="496.705588" y="141.957259" style="fill: #937860"/>
    </g>
    <g clip-path="url(#pb6cc965c68)">
     <use xlink:href="#C5_0_72b40af5cb" x="498.142554" y="178.182632" style="fill: #937860"/>
    </g>
    <g clip-path="url(#pb6cc965c68)">
     <use xlink:href="#C5_0_72b40af5cb" x="494.817508" y="185.188089" style="fill: #937860"/>
    </g>
    <g clip-path="url(#pb6cc965c68)">
     <use xlink:href="#C5_0_72b40af5cb" x="498.142554" y="155.835054" style="fill: #937860"/>
    </g>
    <g clip-path="url(#pb6cc965c68)">
     <use xlink:href="#C5_0_72b40af5cb" x="495.372402" y="176.37164" style="fill: #937860"/>
    </g>
    <g clip-path="url(#pb6cc965c68)">
     <use xlink:href="#C5_0_72b40af5cb" x="491.319199" y="158.921782" style="fill: #937860"/>
    </g>
    <g clip-path="url(#pb6cc965c68)">
     <use xlink:href="#C5_0_72b40af5cb" x="503.100204" y="160.799334" style="fill: #937860"/>
    </g>
    <g clip-path="url(#pb6cc965c68)">
     <use xlink:href="#C5_0_72b40af5cb" x="503.747768" y="174.813023" style="fill: #937860"/>
    </g>
    <g clip-path="url(#pb6cc965c68)">
     <use xlink:href="#C5_0_72b40af5cb" x="498.142554" y="185.648464" style="fill: #937860"/>
    </g>
    <g clip-path="url(#pb6cc965c68)">
     <use xlink:href="#C5_0_72b40af5cb" x="500.650146" y="176.052706" style="fill: #937860"/>
    </g>
    <g clip-path="url(#pb6cc965c68)">
     <use xlink:href="#C5_0_72b40af5cb" x="497.066736" y="159.25181" style="fill: #937860"/>
    </g>
    <g clip-path="url(#pb6cc965c68)">
     <use xlink:href="#C5_0_72b40af5cb" x="498.142554" y="144.849853" style="fill: #937860"/>
    </g>
    <g clip-path="url(#pb6cc965c68)">
     <use xlink:href="#C5_0_72b40af5cb" x="500.361485" y="170.273065" style="fill: #937860"/>
    </g>
    <g clip-path="url(#pb6cc965c68)">
     <use xlink:href="#C5_0_72b40af5cb" x="497.083251" y="170.97472" style="fill: #937860"/>
    </g>
   </g>
   <g id="text_15">
    <!-- Swarmplot of endianness accuracies -->
    <g transform="translate(185.079375 16.318125) scale(0.12 -0.12)">
     <defs>
      <path id="DejaVuSans-77" d="M 269 3500 
L 844 3500 
L 1563 769 
L 2278 3500 
L 2956 3500 
L 3675 769 
L 4391 3500 
L 4966 3500 
L 4050 0 
L 3372 0 
L 2619 2869 
L 1863 0 
L 1184 0 
L 269 3500 
z
" transform="scale(0.015625)"/>
      <path id="DejaVuSans-20" transform="scale(0.015625)"/>
      <path id="DejaVuSans-66" d="M 2375 4863 
L 2375 4384 
L 1825 4384 
Q 1516 4384 1395 4259 
Q 1275 4134 1275 3809 
L 1275 3500 
L 2222 3500 
L 2222 3053 
L 1275 3053 
L 1275 0 
L 697 0 
L 697 3053 
L 147 3053 
L 147 3500 
L 697 3500 
L 697 3744 
Q 697 4328 969 4595 
Q 1241 4863 1831 4863 
L 2375 4863 
z
" transform="scale(0.015625)"/>
      <path id="DejaVuSans-6e" d="M 3513 2113 
L 3513 0 
L 2938 0 
L 2938 2094 
Q 2938 2591 2744 2837 
Q 2550 3084 2163 3084 
Q 1697 3084 1428 2787 
Q 1159 2491 1159 1978 
L 1159 0 
L 581 0 
L 581 3500 
L 1159 3500 
L 1159 2956 
Q 1366 3272 1645 3428 
Q 1925 3584 2291 3584 
Q 2894 3584 3203 3211 
Q 3513 2838 3513 2113 
z
" transform="scale(0.015625)"/>
     </defs>
     <use xlink:href="#DejaVuSans-53"/>
     <use xlink:href="#DejaVuSans-77" transform="translate(63.476562 0)"/>
     <use xlink:href="#DejaVuSans-61" transform="translate(145.263672 0)"/>
     <use xlink:href="#DejaVuSans-72" transform="translate(206.542969 0)"/>
     <use xlink:href="#DejaVuSans-6d" transform="translate(245.90625 0)"/>
     <use xlink:href="#DejaVuSans-70" transform="translate(343.318359 0)"/>
     <use xlink:href="#DejaVuSans-6c" transform="translate(406.794922 0)"/>
     <use xlink:href="#DejaVuSans-6f" transform="translate(434.578125 0)"/>
     <use xlink:href="#DejaVuSans-74" transform="translate(495.759766 0)"/>
     <use xlink:href="#DejaVuSans-20" transform="translate(534.96875 0)"/>
     <use xlink:href="#DejaVuSans-6f" transform="translate(566.755859 0)"/>
     <use xlink:href="#DejaVuSans-66" transform="translate(627.9375 0)"/>
     <use xlink:href="#DejaVuSans-20" transform="translate(663.142578 0)"/>
     <use xlink:href="#DejaVuSans-65" transform="translate(694.929688 0)"/>
     <use xlink:href="#DejaVuSans-6e" transform="translate(756.453125 0)"/>
     <use xlink:href="#DejaVuSans-64" transform="translate(819.832031 0)"/>
     <use xlink:href="#DejaVuSans-69" transform="translate(883.308594 0)"/>
     <use xlink:href="#DejaVuSans-61" transform="translate(911.091797 0)"/>
     <use xlink:href="#DejaVuSans-6e" transform="translate(972.371094 0)"/>
     <use xlink:href="#DejaVuSans-6e" transform="translate(1035.75 0)"/>
     <use xlink:href="#DejaVuSans-65" transform="translate(1099.128906 0)"/>
     <use xlink:href="#DejaVuSans-73" transform="translate(1160.652344 0)"/>
     <use xlink:href="#DejaVuSans-73" transform="translate(1212.751953 0)"/>
     <use xlink:href="#DejaVuSans-20" transform="translate(1264.851562 0)"/>
     <use xlink:href="#DejaVuSans-61" transform="translate(1296.638672 0)"/>
     <use xlink:href="#DejaVuSans-63" transform="translate(1357.917969 0)"/>
     <use xlink:href="#DejaVuSans-63" transform="translate(1412.898438 0)"/>
     <use xlink:href="#DejaVuSans-75" transform="translate(1467.878906 0)"/>
     <use xlink:href="#DejaVuSans-72" transform="translate(1531.257812 0)"/>
     <use xlink:href="#DejaVuSans-61" transform="translate(1572.371094 0)"/>
     <use xlink:href="#DejaVuSans-63" transform="translate(1633.650391 0)"/>
     <use xlink:href="#DejaVuSans-69" transform="translate(1688.630859 0)"/>
     <use xlink:href="#DejaVuSans-65" transform="translate(1716.414062 0)"/>
     <use xlink:href="#DejaVuSans-73" transform="translate(1777.9375 0)"/>
    </g>
   </g>
   <g id="legend_1">
    <g id="patch_7">
     <path d="M 50.78125 349.958125 
L 160.101562 349.958125 
Q 162.101562 349.958125 162.101562 347.958125 
L 162.101562 334.28 
Q 162.101562 332.28 160.101562 332.28 
L 50.78125 332.28 
Q 48.78125 332.28 48.78125 334.28 
L 48.78125 347.958125 
Q 48.78125 349.958125 50.78125 349.958125 
z
" style="fill: #ffffff; opacity: 0.8; stroke: #cccccc; stroke-linejoin: miter"/>
    </g>
    <g id="LineCollection_7">
     <path d="M 62.78125 345.378437 
L 62.78125 335.378437 
" style="fill: none; stroke: #000000; stroke-width: 1.5"/>
    </g>
    <g id="line2d_31">
     <g>
      <use xlink:href="#m1ed5698b7e" x="62.78125" y="345.378437" style="stroke: #000000"/>
     </g>
    </g>
    <g id="line2d_32">
     <g>
      <use xlink:href="#m1ed5698b7e" x="62.78125" y="335.378437" style="stroke: #000000"/>
     </g>
    </g>
    <g id="line2d_33"/>
    <g id="line2d_34">
     <g>
      <use xlink:href="#m867f2b0549" x="62.78125" y="340.378437" style="stroke: #000000"/>
     </g>
    </g>
    <g id="text_16">
     <!-- Mean  95% CI -->
     <g transform="translate(80.78125 343.878437) scale(0.1 -0.1)">
      <defs>
       <path id="DejaVuSans-b1" d="M 2944 4013 
L 2944 2803 
L 4684 2803 
L 4684 2272 
L 2944 2272 
L 2944 1063 
L 2419 1063 
L 2419 2272 
L 678 2272 
L 678 2803 
L 2419 2803 
L 2419 4013 
L 2944 4013 
z
M 678 531 
L 4684 531 
L 4684 0 
L 678 0 
L 678 531 
z
" transform="scale(0.015625)"/>
       <path id="DejaVuSans-39" d="M 703 97 
L 703 672 
Q 941 559 1184 500 
Q 1428 441 1663 441 
Q 2288 441 2617 861 
Q 2947 1281 2994 2138 
Q 2813 1869 2534 1725 
Q 2256 1581 1919 1581 
Q 1219 1581 811 2004 
Q 403 2428 403 3163 
Q 403 3881 828 4315 
Q 1253 4750 1959 4750 
Q 2769 4750 3195 4129 
Q 3622 3509 3622 2328 
Q 3622 1225 3098 567 
Q 2575 -91 1691 -91 
Q 1453 -91 1209 -44 
Q 966 3 703 97 
z
M 1959 2075 
Q 2384 2075 2632 2365 
Q 2881 2656 2881 3163 
Q 2881 3666 2632 3958 
Q 2384 4250 1959 4250 
Q 1534 4250 1286 3958 
Q 1038 3666 1038 3163 
Q 1038 2656 1286 2365 
Q 1534 2075 1959 2075 
z
" transform="scale(0.015625)"/>
       <path id="DejaVuSans-25" d="M 4653 2053 
Q 4381 2053 4226 1822 
Q 4072 1591 4072 1178 
Q 4072 772 4226 539 
Q 4381 306 4653 306 
Q 4919 306 5073 539 
Q 5228 772 5228 1178 
Q 5228 1588 5073 1820 
Q 4919 2053 4653 2053 
z
M 4653 2450 
Q 5147 2450 5437 2106 
Q 5728 1763 5728 1178 
Q 5728 594 5436 251 
Q 5144 -91 4653 -91 
Q 4153 -91 3862 251 
Q 3572 594 3572 1178 
Q 3572 1766 3864 2108 
Q 4156 2450 4653 2450 
z
M 1428 4353 
Q 1159 4353 1004 4120 
Q 850 3888 850 3481 
Q 850 3069 1003 2837 
Q 1156 2606 1428 2606 
Q 1700 2606 1854 2837 
Q 2009 3069 2009 3481 
Q 2009 3884 1853 4118 
Q 1697 4353 1428 4353 
z
M 4250 4750 
L 4750 4750 
L 1831 -91 
L 1331 -91 
L 4250 4750 
z
M 1428 4750 
Q 1922 4750 2215 4408 
Q 2509 4066 2509 3481 
Q 2509 2891 2217 2550 
Q 1925 2209 1428 2209 
Q 931 2209 642 2551 
Q 353 2894 353 3481 
Q 353 4063 643 4406 
Q 934 4750 1428 4750 
z
" transform="scale(0.015625)"/>
       <path id="DejaVuSans-43" d="M 4122 4306 
L 4122 3641 
Q 3803 3938 3442 4084 
Q 3081 4231 2675 4231 
Q 1875 4231 1450 3742 
Q 1025 3253 1025 2328 
Q 1025 1406 1450 917 
Q 1875 428 2675 428 
Q 3081 428 3442 575 
Q 3803 722 4122 1019 
L 4122 359 
Q 3791 134 3420 21 
Q 3050 -91 2638 -91 
Q 1578 -91 968 557 
Q 359 1206 359 2328 
Q 359 3453 968 4101 
Q 1578 4750 2638 4750 
Q 3056 4750 3426 4639 
Q 3797 4528 4122 4306 
z
" transform="scale(0.015625)"/>
       <path id="DejaVuSans-49" d="M 628 4666 
L 1259 4666 
L 1259 0 
L 628 0 
L 628 4666 
z
" transform="scale(0.015625)"/>
      </defs>
      <use xlink:href="#DejaVuSans-4d"/>
      <use xlink:href="#DejaVuSans-65" transform="translate(86.279297 0)"/>
      <use xlink:href="#DejaVuSans-61" transform="translate(147.802734 0)"/>
      <use xlink:href="#DejaVuSans-6e" transform="translate(209.082031 0)"/>
      <use xlink:href="#DejaVuSans-20" transform="translate(272.460938 0)"/>
      <use xlink:href="#DejaVuSans-b1" transform="translate(304.248047 0)"/>
      <use xlink:href="#DejaVuSans-20" transform="translate(388.037109 0)"/>
      <use xlink:href="#DejaVuSans-39" transform="translate(419.824219 0)"/>
      <use xlink:href="#DejaVuSans-35" transform="translate(483.447266 0)"/>
      <use xlink:href="#DejaVuSans-25" transform="translate(547.070312 0)"/>
      <use xlink:href="#DejaVuSans-20" transform="translate(642.089844 0)"/>
      <use xlink:href="#DejaVuSans-43" transform="translate(673.876953 0)"/>
      <use xlink:href="#DejaVuSans-49" transform="translate(743.701172 0)"/>
     </g>
    </g>
   </g>
  </g>
 </g>
 <defs>
  <clipPath id="pb6cc965c68">
   <rect x="43.78125" y="22.318125" width="502.2" height="332.64"/>
  </clipPath>
 </defs>
</svg>
