<svg xmlns="http://www.w3.org/2000/svg" viewBox="0 0 500 400">
  <!-- Background -->
  <rect width="500" height="400" fill="white"/>
  
  <!-- Axes -->
  <line x1="60" y1="350" x2="450" y2="350" stroke="black" stroke-width="2"/>
  <line x1="60" y1="50" x2="60" y2="350" stroke="black" stroke-width="2"/>
  
  <!-- X-axis ticks and labels -->
  <line x1="60" y1="350" x2="60" y2="355" stroke="black" stroke-width="2"/>
  <text x="60" y="375" text-anchor="middle" font-family="Arial" font-size="14">0</text>
  
  <line x1="158" y1="350" x2="158" y2="355" stroke="black" stroke-width="2"/>
  <text x="158" y="375" text-anchor="middle" font-family="Arial" font-size="14">5</text>
  
  <line x1="255" y1="350" x2="255" y2="355" stroke="black" stroke-width="2"/>
  <text x="255" y="375" text-anchor="middle" font-family="Arial" font-size="14">10</text>
  
  <line x1="353" y1="350" x2="353" y2="355" stroke="black" stroke-width="2"/>
  <text x="353" y="375" text-anchor="middle" font-family="Arial" font-size="14">15</text>
  
  <line x1="450" y1="350" x2="450" y2="355" stroke="black" stroke-width="2"/>
  <text x="450" y="375" text-anchor="middle" font-family="Arial" font-size="14">20</text>
  
  <!-- Y-axis ticks and labels -->
  <line x1="55" y1="350" x2="60" y2="350" stroke="black" stroke-width="2"/>
  <text x="45" y="355" text-anchor="end" font-family="Arial" font-size="14">0.6</text>
  
  <line x1="55" y1="275" x2="60" y2="275" stroke="black" stroke-width="2"/>
  <text x="45" y="280" text-anchor="end" font-family="Arial" font-size="14">0.7</text>
  
  <line x1="55" y1="200" x2="60" y2="200" stroke="black" stroke-width="2"/>
  <text x="45" y="205" text-anchor="end" font-family="Arial" font-size="14">0.8</text>
  
  <line x1="55" y1="125" x2="60" y2="125" stroke="black" stroke-width="2"/>
  <text x="45" y="130" text-anchor="end" font-family="Arial" font-size="14">0.9</text>
  
  <!-- Axis labels -->
  <text x="255" y="395" text-anchor="middle" font-family="Arial" font-size="16">Training Epochs</text>
  <text x="20" y="200" text-anchor="middle" font-family="Arial" font-size="16" transform="rotate(-90,20,200)">Accuracy</text>
  
  <!-- Training accuracy curve -->
  <path d="M 60 280 
           C 100 250, 150 200, 200 150 
           S 300 100, 450 80" 
        fill="none" 
        stroke="#00aa00" 
        stroke-width="3"/>
  
  <!-- Validation accuracy curve -->
  <path d="M 60 290 
           C 100 260, 150 210, 200 180 
           S 300 200, 450 230" 
        fill="none" 
        stroke="#cc0000" 
        stroke-width="3"/>
  
  <!-- Legend -->
  <line x1="100" y1="50" x2="140" y2="50" stroke="#00aa00" stroke-width="3"/>
  <text x="150" y="55" font-family="Arial" font-size="14">Training Accuracy</text>
  
  <line x1="270" y1="50" x2="310" y2="50" stroke="#cc0000" stroke-width="3"/>
  <text x="320" y="55" font-family="Arial" font-size="14">Validation Accuracy</text>
  
  <!-- Overfitting point annotation -->
  <line x1="220" y1="220" x2="220" y2="100" stroke="#666666" stroke-width="1" stroke-dasharray="4"/>
  <text x="220" y="95" text-anchor="middle" font-family="Arial" font-size="14" fill="#666666">Overfitting begins</text>
</svg>
