<svg xmlns="http://www.w3.org/2000/svg" viewBox="0 0 800 200">
    <!-- Step 1 -->
    <g transform="translate(20, 20)">
        <!-- Input Grid -->
        <rect width="160" height="160" fill="none" stroke="#333" stroke-width="2"/>
        <g stroke="#ccc" stroke-width="1">
            <line x1="40" y1="0" x2="40" y2="160"/>
            <line x1="80" y1="0" x2="80" y2="160"/>
            <line x1="120" y1="0" x2="120" y2="160"/>
            <line x1="0" y1="40" x2="160" y2="40"/>
            <line x1="0" y1="80" x2="160" y2="80"/>
            <line x1="0" y1="120" x2="160" y2="120"/>
        </g>
        <!-- Highlighted Kernel Area -->
        <rect width="120" height="120" fill="#ffeb3b" fill-opacity="0.3" stroke="#f44336" stroke-width="2"/>
    </g>

    <!-- Step 2 -->
    <g transform="translate(220, 20)">
        <rect width="160" height="160" fill="none" stroke="#333" stroke-width="2"/>
        <g stroke="#ccc" stroke-width="1">
            <line x1="40" y1="0" x2="40" y2="160"/>
            <line x1="80" y1="0" x2="80" y2="160"/>
            <line x1="120" y1="0" x2="120" y2="160"/>
            <line x1="0" y1="40" x2="160" y2="40"/>
            <line x1="0" y1="80" x2="160" y2="80"/>
            <line x1="0" y1="120" x2="160" y2="120"/>
        </g>
        <!-- Highlighted Kernel Area -->
        <rect x="40" width="120" height="120" fill="#ffeb3b" fill-opacity="0.3" stroke="#f44336" stroke-width="2"/>
    </g>

    <!-- Step 3 -->
    <g transform="translate(420, 20)">
        <rect width="160" height="160" fill="none" stroke="#333" stroke-width="2"/>
        <g stroke="#ccc" stroke-width="1">
            <line x1="40" y1="0" x2="40" y2="160"/>
            <line x1="80" y1="0" x2="80" y2="160"/>
            <line x1="120" y1="0" x2="120" y2="160"/>
            <line x1="0" y1="40" x2="160" y2="40"/>
            <line x1="0" y1="80" x2="160" y2="80"/>
            <line x1="0" y1="120" x2="160" y2="120"/>
        </g>
        <!-- Highlighted Kernel Area -->
        <rect y="40" width="120" height="120" fill="#ffeb3b" fill-opacity="0.3" stroke="#f44336" stroke-width="2"/>
    </g>

    <!-- Step 4 -->
    <g transform="translate(620, 20)">
        <rect width="160" height="160" fill="none" stroke="#333" stroke-width="2"/>
        <g stroke="#ccc" stroke-width="1">
            <line x1="40" y1="0" x2="40" y2="160"/>
            <line x1="80" y1="0" x2="80" y2="160"/>
            <line x1="120" y1="0" x2="120" y2="160"/>
            <line x1="0" y1="40" x2="160" y2="40"/>
            <line x1="0" y1="80" x2="160" y2="80"/>
            <line x1="0" y1="120" x2="160" y2="120"/>
        </g>
        <!-- Highlighted Kernel Area -->
        <rect x="40" y="40" width="120" height="120" fill="#ffeb3b" fill-opacity="0.3" stroke="#f44336" stroke-width="2"/>
    </g>
</svg>
